<?xml version="1.0" standalone="no"?>
<!DOCTYPE svg PUBLIC "-//W3C//DTD SVG 20010904//EN"
 "http://www.w3.org/TR/2001/REC-SVG-20010904/DTD/svg10.dtd">
<svg version="1.0" xmlns="http://www.w3.org/2000/svg"
 width="1536.000000pt" height="1536.000000pt" viewBox="0 0 1536.000000 1536.000000"
 preserveAspectRatio="xMidYMid meet">
<metadata>
Created by potrace 1.14, written by Peter Selinger 2001-2017
</metadata>
<g transform="translate(0.000000,1536.000000) scale(0.100000,-0.100000)"
fill="#000000" stroke="none">
<path d="M8106 12237 c-16 -12 -16 -13 2 -14 10 -1 19 5 19 13 0 17 1 17 -21
1z"/>
<path d="M7530 12176 c0 -2 7 -7 16 -10 8 -3 12 -2 9 4 -6 10 -25 14 -25 6z"/>
<path d="M7705 12170 c3 -5 1 -10 -6 -10 -8 0 -8 -4 2 -16 12 -14 14 -14 20 3
7 20 3 33 -12 33 -6 0 -7 -4 -4 -10z"/>
<path d="M8109 12091 c-10 -3 -14 -12 -10 -21 8 -19 28 -23 34 -6 8 19 -6 34
-24 27z"/>
<path d="M7295 12050 c-3 -5 -1 -18 4 -27 9 -16 10 -14 11 10 0 28 -5 34 -15
17z"/>
<path d="M7577 12023 c-10 -9 -9 -43 2 -43 5 0 11 6 14 13 6 17 -7 40 -16 30z"/>
<path d="M4045 12010 c3 -5 11 -10 16 -10 6 0 7 5 4 10 -3 6 -11 10 -16 10 -6
0 -7 -4 -4 -10z"/>
<path d="M3014 11999 c-9 -16 2 -22 21 -11 15 8 16 10 1 15 -8 3 -18 2 -22 -4z"/>
<path d="M5886 12001 c-4 -5 -2 -12 3 -15 5 -4 12 -2 15 3 4 5 2 12 -3 15 -5
4 -12 2 -15 -3z"/>
<path d="M5710 11976 c0 -19 4 -24 15 -19 18 6 16 34 -2 41 -8 2 -13 -6 -13
-22z"/>
<path d="M6390 11979 c0 -11 4 -18 10 -14 5 3 7 12 3 20 -7 21 -13 19 -13 -6z"/>
<path d="M3361 11976 c-8 -10 -9 -16 -1 -21 5 -3 13 1 16 10 9 22 -1 29 -15
11z"/>
<path d="M4571 11981 c-8 -5 -10 -14 -6 -21 6 -9 10 -8 17 4 12 21 7 28 -11
17z"/>
<path d="M7207 11973 c3 -7 8 -13 12 -13 4 0 8 6 8 13 0 8 -6 14 -13 14 -7 0
-10 -6 -7 -14z"/>
<path d="M7680 11980 c-8 -5 -10 -10 -5 -11 6 0 18 -2 27 -4 11 -2 15 2 11 11
-6 16 -13 17 -33 4z"/>
<path d="M6060 11960 c5 -10 8 -19 7 -21 -1 -2 0 -3 2 -1 11 6 6 39 -5 39 -9
0 -10 -5 -4 -17z"/>
<path d="M6930 11969 c0 -5 5 -7 10 -4 6 3 10 8 10 11 0 2 -4 4 -10 4 -5 0
-10 -5 -10 -11z"/>
<path d="M4413 11945 c0 -8 4 -12 9 -9 5 3 6 10 3 15 -9 13 -12 11 -12 -6z"/>
<path d="M6547 11949 c7 -7 15 -10 18 -7 3 3 -2 9 -12 12 -14 6 -15 5 -6 -5z"/>
<path d="M7266 11949 c2 -4 13 -7 24 -6 10 1 17 4 14 8 -2 4 -13 7 -24 6 -10
-1 -17 -4 -14 -8z"/>
<path d="M7766 11945 c4 -8 10 -12 15 -9 14 8 11 -8 -6 -26 -13 -14 -12 -16 6
-17 28 -2 35 24 14 47 -21 24 -37 26 -29 5z"/>
<path d="M5400 11940 c-11 -7 -11 -10 -2 -10 7 0 10 -4 7 -10 -4 -6 1 -7 11
-3 11 4 13 8 6 11 -7 2 -10 8 -6 13 7 11 3 11 -16 -1z"/>
<path d="M8119 11943 c0 -5 -2 -16 -4 -26 -3 -14 -1 -16 10 -7 8 6 11 18 8 26
-6 15 -13 19 -14 7z"/>
<path d="M2770 11936 c0 -2 7 -7 16 -10 8 -3 12 -2 9 4 -6 10 -25 14 -25 6z"/>
<path d="M5970 11908 c0 -30 15 -46 23 -24 3 8 -1 22 -8 33 -13 17 -14 16 -15
-9z"/>
<path d="M6670 11921 c0 -6 4 -13 10 -16 6 -3 7 1 4 9 -7 18 -14 21 -14 7z"/>
<path d="M7012 11922 c-16 -11 -5 -42 14 -42 11 0 12 4 5 19 -6 10 -7 21 -4
25 9 8 1 7 -15 -2z"/>
<path d="M7449 11928 c-6 -22 -5 -39 3 -45 6 -3 8 -1 4 5 -3 5 0 13 6 15 10 4
10 6 0 6 -7 1 -10 6 -7 11 3 6 4 10 1 10 -3 0 -6 -1 -7 -2z"/>
<path d="M2987 11913 c-12 -12 -7 -22 8 -17 8 4 15 10 15 15 0 11 -14 12 -23
2z"/>
<path d="M6470 11899 c0 -5 5 -7 10 -4 6 3 10 8 10 11 0 2 -4 4 -10 4 -5 0
-10 -5 -10 -11z"/>
<path d="M5666 11885 c-3 -9 3 -19 15 -25 27 -15 42 -4 29 21 -13 23 -36 25
-44 4z"/>
<path d="M7850 11881 c0 -10 6 -21 14 -24 10 -4 14 0 13 13 -2 26 -27 35 -27
11z"/>
<path d="M6990 11881 c0 -6 -4 -10 -9 -8 -5 1 -20 -11 -35 -26 -15 -16 -31
-25 -38 -21 -6 4 -8 3 -5 -3 4 -7 -5 -10 -23 -9 -17 0 -30 4 -30 7 0 4 -9 9
-20 12 -11 3 -20 2 -20 -3 0 -15 -44 -19 -60 -6 -22 19 -48 27 -55 16 -8 -12
-42 -7 -57 8 -9 9 -9 12 1 12 7 0 9 5 5 11 -4 8 -9 7 -15 -2 -4 -8 -17 -15
-29 -15 -11 -1 -32 -2 -46 -3 -14 0 -23 -5 -20 -9 2 -4 1 -14 -4 -22 -8 -13
-13 -13 -31 -2 -14 9 -19 10 -14 2 5 -8 -1 -7 -16 2 -13 8 -39 14 -56 13 -18
0 -33 4 -33 10 0 6 -3 6 -8 -1 -7 -11 -82 -17 -119 -8 -13 2 -23 12 -23 22 0
10 -3 13 -8 6 -4 -6 -15 -10 -25 -8 -9 1 -23 -3 -30 -10 -10 -11 -15 -10 -27
2 -12 13 -14 13 -19 0 -4 -10 -18 -15 -43 -14 -25 1 -40 -4 -44 -14 -4 -12 -9
-11 -24 8 -23 28 -56 29 -63 1 -5 -20 -7 -20 -27 -6 -12 9 -28 13 -35 11 -7
-3 -16 0 -20 6 -5 8 -11 8 -22 -1 -11 -10 -16 -10 -23 0 -6 11 -9 11 -13 0 -4
-10 -6 -10 -6 -1 -1 6 -7 12 -15 12 -8 0 -17 6 -20 13 -3 8 -9 6 -20 -7 -9
-11 -16 -16 -16 -10 0 5 -3 5 -8 -1 -23 -32 -71 -33 -119 -2 -6 4 -19 -1 -29
-10 -18 -18 -84 -26 -84 -10 0 4 -4 5 -10 2 -5 -3 -10 1 -10 9 0 19 -5 20 -31
5 -14 -7 -24 -7 -33 0 -9 7 -16 7 -24 -1 -14 -14 -65 9 -55 25 3 6 1 7 -5 3
-6 -4 -9 -12 -6 -19 2 -7 -9 -18 -28 -25 -27 -10 -35 -9 -50 5 -10 9 -18 12
-18 6 0 -5 -7 -10 -15 -10 -8 0 -15 3 -15 6 0 3 -93 6 -207 5 -152 0 -215 -4
-233 -14 -17 -9 -25 -10 -28 -1 -2 6 -12 11 -22 11 -11 0 -23 8 -29 17 -8 16
-10 14 -16 -10 -8 -32 -5 -31 -41 -12 -17 8 -32 11 -37 6 -17 -17 -73 21 -61
40 2 4 -5 5 -16 2 -11 -3 -18 -9 -15 -13 8 -13 -24 -33 -45 -27 -11 3 -20 1
-20 -5 0 -5 -4 -6 -10 -3 -5 3 -10 1 -10 -4 0 -6 -7 -11 -16 -11 -8 0 -12 4
-9 10 3 6 -1 7 -9 4 -9 -3 -16 -2 -16 4 0 11 -50 4 -67 -11 -9 -6 -17 -6 -26
2 -10 8 -17 7 -25 -1 -9 -9 -12 -9 -12 0 0 7 -5 12 -11 12 -5 0 -7 -6 -4 -12
4 -7 1 -6 -7 3 -9 11 -27 15 -55 13 -24 -1 -43 2 -43 8 0 5 -4 6 -10 3 -5 -3
-10 -2 -10 2 0 17 -65 7 -86 -12 -36 -34 -111 -28 -136 9 -5 7 -8 7 -8 -3 0
-7 -6 -11 -13 -8 -7 3 -24 -1 -37 -8 -20 -11 -26 -10 -43 6 -15 14 -24 16 -34
8 -7 -6 -20 -9 -28 -5 -8 3 -15 0 -15 -7 0 -16 -58 -21 -76 -6 -7 6 -18 8 -24
4 -5 -3 -10 -1 -10 6 0 7 -3 10 -6 6 -4 -3 -13 1 -22 10 -14 13 -17 13 -26 0
-7 -9 -29 -15 -59 -15 -26 -1 -52 -4 -57 -7 -6 -4 -10 -2 -10 2 0 5 -9 14 -21
21 -18 11 -24 11 -38 -2 -18 -17 -71 -17 -83 -1 -5 6 -8 6 -8 -2 0 -6 -11 -10
-25 -9 -13 2 -22 -1 -19 -5 3 -5 2 -9 -3 -10 -4 0 -19 -3 -32 -5 -16 -3 -28 1
-34 11 -7 13 -12 14 -23 4 -8 -6 -14 -8 -14 -3 0 16 -124 10 -138 -6 -10 -11
-14 -12 -18 -2 -3 6 -10 10 -15 6 -5 -3 -9 -2 -9 3 0 4 -37 8 -82 8 -70 0 -84
-3 -90 -18 -4 -9 -7 -20 -7 -23 0 -4 -5 -11 -13 -15 -10 -7 -10 -9 0 -9 6 0
12 -9 12 -21 0 -11 7 -27 15 -36 16 -15 11 -38 -6 -28 -5 4 -9 -5 -9 -18 0
-14 -7 -28 -16 -31 -16 -6 -12 -20 7 -22 5 -1 13 -2 19 -3 5 0 7 -8 4 -16 -4
-8 -10 -12 -15 -9 -10 6 -29 -37 -22 -49 3 -4 12 -7 21 -6 38 3 45 0 32 -16
-7 -8 -10 -22 -6 -30 3 -9 2 -13 -4 -10 -6 3 -10 1 -10 -5 0 -7 -6 -10 -14 -7
-15 6 -16 -9 -3 -30 5 -8 3 -13 -3 -13 -7 0 -6 -5 2 -13 7 -8 20 -12 30 -9 17
4 24 -12 19 -41 -1 -5 3 -6 8 -3 15 10 21 -22 5 -34 -8 -7 -14 -8 -14 -2 0 5
-9 12 -19 15 -26 7 -37 -31 -11 -41 14 -5 16 -12 9 -30 -5 -13 -12 -21 -16
-19 -5 3 -6 -15 -4 -39 1 -24 7 -44 12 -44 5 0 9 -13 9 -29 0 -22 -6 -30 -25
-35 l-25 -6 21 -21 c11 -11 23 -17 28 -15 4 3 8 -8 7 -24 -1 -18 -6 -30 -14
-30 -7 0 -10 -4 -7 -10 3 -5 2 -10 -3 -10 -22 0 -6 -29 19 -34 22 -4 26 -9 22
-25 -3 -12 -8 -19 -12 -17 -4 3 -8 -5 -8 -17 -1 -12 -7 -23 -13 -25 -14 -5
-13 -49 3 -55 9 -4 9 -8 1 -14 -7 -4 -14 -19 -15 -33 -2 -14 -8 -28 -14 -33
-6 -4 -1 -15 13 -26 12 -11 22 -29 22 -40 0 -12 5 -21 10 -21 6 0 10 -5 10
-11 0 -6 -6 -9 -13 -6 -28 11 -38 -8 -18 -32 18 -20 18 -25 6 -38 -8 -8 -15
-23 -15 -33 0 -10 -3 -25 -6 -33 -3 -8 2 -21 10 -30 16 -16 23 -82 8 -73 -4 2
-13 -4 -20 -14 -14 -23 -1 -34 28 -25 21 7 27 -4 11 -21 -19 -19 -60 -102 -54
-108 4 -3 16 -6 29 -6 22 0 34 -22 34 -69 0 -16 -4 -21 -14 -18 -16 6 -15 -8
2 -40 11 -19 9 -24 -10 -35 -13 -7 -26 -12 -29 -11 -3 1 -6 -5 -6 -13 0 -8 4
-14 9 -14 5 0 6 -4 3 -10 -3 -5 -1 -10 6 -10 17 0 38 -31 39 -57 0 -24 -16
-31 -22 -11 -3 9 -9 8 -21 -4 -11 -10 -13 -19 -7 -23 5 -3 10 -17 10 -30 0
-18 4 -22 20 -18 18 5 20 0 20 -41 0 -25 -4 -46 -10 -46 -5 0 -10 -7 -10 -15
0 -8 5 -15 11 -15 8 0 8 -4 0 -14 -8 -10 -9 -16 -1 -21 16 -10 12 -25 -9 -25
-27 0 -42 -22 -26 -37 7 -6 15 -10 18 -7 2 3 7 -4 10 -15 3 -12 0 -19 -6 -18
-6 1 -13 -7 -15 -18 -2 -11 -9 -23 -16 -27 -8 -6 -7 -8 2 -8 6 0 12 -6 12 -14
0 -7 9 -16 20 -19 21 -5 28 -37 9 -37 -8 0 -7 -5 1 -16 11 -13 10 -16 -8 -21
-31 -8 -30 -50 0 -49 20 1 22 -4 23 -44 0 -28 -6 -49 -15 -57 -8 -6 -12 -15
-8 -19 4 -4 14 -1 22 5 11 9 16 9 22 0 5 -8 3 -9 -5 -5 -8 5 -14 0 -18 -13 -3
-12 -13 -21 -23 -21 -20 0 -36 -33 -24 -51 4 -8 3 -9 -4 -5 -7 4 -12 3 -12 -3
0 -5 9 -13 21 -16 16 -5 19 -14 17 -38 -2 -20 -9 -32 -17 -32 -8 0 -16 -6 -19
-14 -3 -8 0 -11 5 -8 5 3 9 -4 9 -16 -1 -12 5 -22 12 -23 6 -1 18 -2 26 -3 17
-1 9 -46 -12 -63 -13 -11 -14 -11 -7 1 5 10 4 12 -3 7 -7 -4 -12 -18 -12 -32
0 -20 5 -24 33 -24 17 0 28 -4 22 -8 -14 -10 -39 -55 -26 -47 6 3 11 -1 11 -9
0 -9 -4 -16 -10 -16 -14 0 -13 -36 2 -60 10 -16 8 -22 -13 -42 -28 -26 -26
-57 3 -52 10 1 21 -3 25 -8 3 -6 1 -8 -4 -5 -12 7 -27 -20 -24 -40 1 -7 -3
-22 -9 -33 -11 -20 -1 -26 38 -21 8 2 12 -5 10 -16 -2 -10 -10 -17 -17 -15 -9
2 -9 -3 -1 -18 8 -14 8 -20 0 -20 -6 0 -9 -4 -6 -8 2 -4 -4 -9 -15 -9 -29 -3
-52 -28 -36 -41 7 -6 18 -7 26 -2 20 12 40 2 36 -18 -2 -9 -4 -27 -4 -40 -1
-14 -10 -26 -25 -32 -18 -6 -23 -14 -19 -29 3 -11 8 -20 12 -19 19 2 29 -4 34
-22 3 -11 1 -20 -4 -20 -5 0 -8 -3 -8 -7 5 -28 -1 -35 -18 -22 -11 10 -14 10
-9 2 4 -7 2 -13 -3 -13 -7 0 -7 -7 1 -20 7 -12 20 -19 29 -17 11 3 16 -1 14
-12 -1 -9 -8 -15 -14 -14 -6 2 -11 -4 -11 -12 0 -8 5 -15 10 -15 6 0 10 -5 10
-11 0 -6 -9 -9 -20 -6 -12 3 -20 0 -20 -7 0 -6 9 -18 20 -26 11 -8 20 -22 20
-31 0 -26 -11 -50 -20 -44 -4 3 -13 -2 -20 -10 -10 -13 -8 -20 14 -40 15 -14
28 -34 29 -45 1 -11 5 -20 9 -20 4 0 8 -5 8 -10 0 -7 -6 -7 -18 -1 -11 6 -22
5 -32 -2 -19 -15 -22 -47 -4 -47 14 0 54 -56 54 -75 0 -6 -9 -11 -20 -11 -11
0 -20 6 -20 13 0 7 -4 13 -10 13 -17 0 -11 -16 15 -45 20 -21 23 -30 14 -41
-6 -8 -8 -14 -3 -14 5 0 -2 -10 -16 -23 -29 -25 -29 -56 1 -54 10 1 19 4 19 7
0 4 7 7 15 7 8 0 15 -4 15 -8 0 -3 11 -9 25 -11 14 -3 25 -2 25 3 0 4 9 6 20
4 11 -2 18 0 15 6 -4 5 -1 9 5 9 6 0 9 3 7 8 -3 4 5 14 17 23 18 14 25 15 40
4 10 -8 15 -18 11 -24 -3 -6 -1 -11 5 -11 6 0 8 -6 4 -12 -4 -7 -4 -10 1 -6 4
4 20 1 36 -7 29 -15 54 -16 78 -1 7 5 16 5 20 -1 7 -10 84 -15 118 -8 18 4 21
12 21 51 0 25 3 48 5 51 3 2 2 17 -3 33 -5 18 -4 32 3 40 7 7 8 10 2 8 -11 -6
-28 10 -33 31 -2 9 4 12 16 9 15 -4 18 -1 14 18 -2 14 0 24 7 24 6 0 11 7 11
15 0 8 -4 15 -10 15 -5 0 -10 8 -10 17 0 9 -3 13 -7 10 -3 -4 -13 3 -21 14
-12 18 -12 23 -1 30 7 4 16 4 19 -1 13 -20 27 8 27 52 -1 26 -3 46 -5 43 -2
-2 -11 3 -20 12 -14 14 -14 16 0 27 12 9 13 17 7 29 -7 12 -6 17 1 17 6 0 8 5
4 11 -4 7 -7 35 -8 63 -1 32 -5 50 -12 49 -7 -1 -10 6 -7 17 4 15 9 17 23 10
31 -17 46 -3 42 36 -2 19 -7 33 -9 30 -7 -7 -58 46 -57 59 0 5 4 18 9 28 7 17
8 17 28 0 11 -10 17 -13 14 -6 -4 6 -4 13 0 16 5 2 3 2 -4 1 -9 -2 -11 6 -6
26 3 18 1 30 -5 30 -5 0 -12 9 -15 21 -3 12 -3 18 0 15 4 -3 11 4 17 17 7 12
17 22 23 22 21 0 24 12 6 26 -15 12 -16 12 -9 -1 4 -8 0 -6 -8 4 -9 11 -16 23
-16 28 0 4 -6 8 -14 8 -16 0 -25 19 -19 38 3 6 11 12 18 12 8 0 11 7 8 20 -4
13 0 20 9 20 12 0 13 9 8 45 -4 25 -3 45 1 45 13 0 -2 33 -23 51 -20 18 -24
39 -7 39 5 0 8 4 4 9 -3 5 -1 12 5 16 5 3 10 15 10 26 0 13 4 18 12 13 6 -4 8
-3 5 4 -10 15 3 43 16 35 6 -3 7 -1 3 5 -5 8 -13 8 -32 0 -19 -9 -27 -9 -37 2
-9 10 -9 13 1 17 6 3 12 9 12 15 0 6 8 17 18 24 15 12 15 15 2 24 -10 6 -11
10 -2 10 7 0 12 14 12 36 0 21 4 33 10 29 6 -3 10 1 10 9 0 8 8 16 18 18 14 3
13 8 -11 30 -16 15 -26 31 -23 37 3 5 2 11 -4 13 -13 4 25 74 39 71 7 -2 7 4
0 21 -8 16 -18 22 -35 20 -24 -2 -34 19 -14 31 6 3 10 20 10 36 0 17 -4 28 -9
24 -5 -3 -12 -1 -16 5 -6 10 -3 11 34 14 11 0 26 7 33 15 10 10 10 12 1 7 -7
-4 -13 -3 -13 3 0 6 -6 8 -14 5 -10 -4 -14 10 -15 61 -1 39 3 64 8 61 5 -4 12
-2 15 3 4 5 1 13 -5 17 -6 3 -15 1 -19 -6 -4 -7 -13 -9 -19 -6 -6 4 -9 11 -6
16 3 5 1 11 -5 15 -5 3 -10 13 -10 21 0 8 4 13 9 9 5 -3 12 4 16 15 3 11 10
20 15 20 5 0 5 13 0 29 -6 22 -4 33 6 42 11 9 14 8 14 -5 0 -10 5 -14 10 -11
5 3 10 15 10 25 0 15 -6 18 -29 15 -19 -3 -31 1 -35 11 -3 8 1 14 10 14 12 0
15 9 13 38 -3 45 5 62 31 62 22 0 24 36 3 44 -17 7 -43 -3 -43 -16 0 -5 -4 -7
-9 -4 -11 7 -5 56 8 69 6 6 11 21 11 34 0 14 6 23 15 23 8 0 14 4 12 9 -1 5 7
17 18 25 11 8 15 16 8 16 -6 0 -15 -4 -18 -10 -3 -5 -11 -10 -16 -10 -6 0 -7
5 -4 10 4 6 3 10 -2 9 -4 -1 -17 -1 -27 0 -18 1 -18 2 -2 20 16 18 20 81 4 81
-4 0 -8 7 -8 16 0 8 5 12 10 9 6 -3 10 0 10 7 0 9 3 9 10 -2 7 -11 10 -11 10
-2 0 7 5 10 10 7 5 -3 10 1 10 9 0 9 0 18 0 21 0 3 -1 4 -3 3 -2 -2 -11 5 -20
14 -18 18 -23 78 -7 78 6 0 10 8 10 18 0 10 5 23 12 30 9 9 9 12 -1 12 -7 0
-9 5 -6 10 6 10 -7 14 -32 11 -7 -1 -13 3 -13 9 0 6 6 19 13 30 8 14 9 23 2
28 -6 4 -12 21 -13 37 -2 17 -8 32 -13 33 -15 6 -10 28 11 47 11 10 20 26 20
36 0 10 4 21 10 24 6 3 10 15 10 26 0 16 -5 19 -19 14 -25 -8 -33 25 -11 42
10 8 11 12 3 13 -15 0 -18 40 -3 40 6 0 10 9 10 21 0 11 -4 18 -9 14 -5 -3
-12 -1 -16 5 -5 9 15 15 38 11 17 -3 6 47 -11 51 -18 5 -27 38 -11 38 4 0 7
13 7 30 -1 16 -5 27 -10 24 -4 -3 -8 7 -8 22 0 15 -8 33 -17 40 -17 13 -17 15
-1 24 10 6 15 20 13 35 -1 14 1 25 5 25 5 0 6 9 3 20 -6 24 -22 26 -38 3 -11
-15 -12 -14 -10 8 4 38 4 39 19 33 8 -3 25 5 37 17 31 31 49 32 49 5 0 -17 6
-22 32 -24 18 -2 36 -8 40 -15 6 -9 10 -8 18 3 9 13 11 13 20 0 9 -13 11 -13
20 0 5 8 10 11 10 6 0 -5 7 -3 15 4 8 7 15 9 15 4 0 -5 5 -2 10 6 8 12 12 12
18 2 10 -14 33 -13 44 2 4 6 17 5 33 -2 15 -7 30 -10 35 -7 5 3 12 -4 15 -15
5 -16 10 -18 19 -11 7 6 16 8 19 4 13 -12 7 13 -5 26 -11 11 -9 11 9 2 12 -6
28 -8 36 -5 9 3 22 -4 31 -18 9 -12 16 -18 16 -13 0 6 5 3 11 -5 8 -11 12 -12
16 -2 2 6 8 10 13 7 4 -2 7 5 6 18 -1 16 5 23 23 25 13 2 35 15 48 28 27 27
48 23 40 -7 -3 -11 -1 -17 4 -13 5 3 9 0 9 -6 0 -7 6 -8 18 -1 22 12 43 -4 35
-25 -4 -10 4 -14 29 -14 24 0 35 5 35 14 0 8 -5 14 -10 13 -5 -1 -11 6 -12 16
-2 9 3 17 11 17 8 0 14 -5 14 -10 0 -6 8 -10 18 -8 11 2 18 -4 20 -19 2 -16
10 -23 25 -23 31 0 43 11 41 37 -1 12 5 24 12 27 8 3 13 0 11 -7 -1 -7 10 -13
26 -15 15 -2 27 -8 27 -13 0 -6 5 -7 10 -4 6 3 10 1 10 -6 0 -8 4 -8 13 -2 6
6 20 9 30 7 13 -2 17 2 13 13 -5 13 -4 14 9 3 12 -10 15 -10 15 1 1 9 5 8 15
-5 8 -11 15 -16 15 -12 0 4 7 0 16 -8 21 -22 50 -20 76 4 22 20 44 18 31 -3
-4 -7 0 -6 10 2 13 10 17 11 17 1 0 -10 4 -9 18 2 27 24 50 28 56 12 3 -9 10
-13 15 -10 5 4 17 -1 25 -10 10 -9 24 -13 33 -9 14 5 15 8 4 14 -21 13 -4 33
18 21 10 -5 22 -6 26 -2 4 4 2 -3 -4 -15 -11 -22 -10 -23 26 -23 38 1 79 21
66 33 -3 4 2 7 13 7 11 0 25 -9 32 -20 14 -23 61 -27 81 -7 11 10 14 10 18 0
8 -22 76 -16 91 8 17 26 59 23 54 -5 -3 -14 1 -17 13 -12 9 3 19 6 21 6 3 0 2
5 -2 12 -4 7 -3 8 5 4 6 -4 17 -3 24 2 12 10 39 15 65 13 7 0 12 -9 10 -18 -2
-12 4 -19 20 -21 12 -2 22 1 22 7 0 18 38 12 49 -6 10 -17 10 -17 11 0 0 19
15 23 25 7 10 -16 25 -12 25 7 0 14 2 14 20 -2 18 -16 23 -17 46 -5 15 9 28
10 32 5 9 -13 35 -18 28 -6 -4 5 2 14 11 20 10 5 17 12 16 15 -14 31 21 29 43
-2 10 -14 26 -22 44 -22 16 0 32 -5 36 -11 4 -8 9 -7 15 2 6 10 13 11 31 2 36
-17 58 -23 58 -15 0 4 11 7 25 7 14 0 25 -4 25 -9 0 -5 6 -3 13 3 8 6 17 8 20
4 4 -3 9 0 12 8 6 15 82 18 105 4 9 -5 11 -4 6 4 -6 9 0 10 21 5 15 -4 30 -11
31 -16 5 -11 50 -10 54 2 2 5 18 10 36 12 22 2 37 9 44 23 14 27 13 26 32 19
9 -3 16 -15 16 -25 0 -21 36 -27 42 -8 3 9 10 8 25 -1 18 -12 23 -11 38 3 9 9
19 17 22 17 4 0 4 -3 0 -6 -3 -3 3 -15 13 -27 16 -17 22 -18 35 -7 10 8 15 9
15 1 0 -15 31 -13 52 3 11 8 34 11 59 9 37 -4 40 -2 34 16 -5 16 -2 21 13 21
13 0 19 -6 18 -17 -1 -13 7 -18 25 -19 14 -1 36 -11 47 -22 29 -29 62 -30 55
-2 -4 16 0 20 21 20 14 0 26 6 27 13 0 6 5 2 11 -10 14 -29 58 -31 83 -3 22
24 40 26 31 4 -3 -8 -2 -12 4 -9 6 3 10 0 10 -7 0 -10 2 -10 8 -1 10 17 105
20 110 5 5 -17 62 -15 68 3 4 8 12 15 20 15 8 0 14 5 14 12 0 7 7 5 18 -5 20
-19 90 -17 102 3 5 9 9 9 14 1 4 -6 5 -15 1 -20 -14 -24 84 -33 111 -10 12 10
17 10 23 1 4 -7 21 -12 38 -10 23 1 29 6 26 19 -5 18 30 32 44 18 5 -5 19 -11
31 -14 19 -3 21 0 16 23 -5 25 -4 26 9 9 8 -10 19 -17 23 -16 5 1 19 1 32 0
18 -1 22 -5 17 -20 -4 -15 0 -20 24 -23 17 -2 32 0 34 5 4 14 47 20 47 7 0 -6
12 -10 26 -10 17 0 23 4 18 12 -5 8 -2 9 9 5 10 -4 17 -1 17 6 0 8 4 6 10 -3
5 -8 10 -10 10 -5 0 10 106 12 116 2 3 -3 13 -3 21 0 8 3 18 1 22 -5 7 -11 30
-15 75 -13 20 1 27 5 22 16 -3 9 3 19 14 25 16 9 21 5 35 -23 16 -34 43 -46
41 -18 -2 23 72 34 84 12 6 -13 19 -16 50 -13 l42 4 -5 39 c-2 22 -1 39 3 39
14 0 -2 38 -18 45 -15 6 -15 8 -2 18 21 17 48 53 33 43 -9 -5 -13 -1 -14 11
-1 10 -2 34 -3 53 -2 19 1 44 5 56 4 11 3 27 -1 34 -6 9 -3 18 8 27 14 10 15
13 2 14 -8 1 -18 1 -22 0 -11 -1 -2 33 10 37 7 2 9 9 5 15 -13 20 -12 35 3 41
18 7 18 42 -1 49 -8 4 -12 15 -10 26 3 15 0 18 -12 14 -9 -4 -19 1 -25 10 -5
10 -15 14 -25 10 -12 -5 -14 -3 -8 7 6 9 4 11 -6 5 -7 -5 -21 -10 -30 -10 -9
-1 -27 -11 -39 -23 -36 -34 -98 -24 -111 17 -4 11 -8 11 -21 -3 -20 -19 -48
-21 -48 -3 0 7 -5 5 -10 -5 -10 -16 -50 -14 -50 3 0 5 -9 9 -20 9 -11 0 -20
-4 -20 -8 0 -5 -7 -9 -15 -9 -8 0 -11 5 -8 10 4 7 -1 7 -13 2 -10 -4 -27 -8
-36 -9 -9 0 -15 -3 -12 -7 9 -15 -25 -17 -43 -3 -10 9 -12 13 -5 9 6 -3 12 -4
12 0 0 15 -46 22 -61 8 -9 -7 -20 -13 -25 -11 -5 1 -19 -3 -31 -10 -14 -8 -23
-8 -25 -1 -2 5 -19 11 -38 12 -19 1 -38 6 -42 12 -5 6 -8 5 -8 -2 0 -17 -70
-16 -93 1 -21 16 -67 9 -85 -13 -8 -9 -11 -10 -7 -3 9 17 -3 15 -22 -3 -14
-14 -38 -12 -29 3 6 10 -108 7 -125 -3 -25 -16 -38 -14 -61 10 -12 12 -28 20
-36 17 -8 -2 -18 1 -24 9 -7 11 -11 11 -15 2 -7 -18 -23 -16 -23 1 0 8 -4 18
-10 21 -5 3 -10 1 -10 -4z m-1665 -581 c-3 -5 -10 -10 -16 -10 -5 0 -9 5 -9
10 0 6 7 10 16 10 8 0 12 -4 9 -10z m-2061 -945 c3 -9 0 -15 -9 -15 -9 0 -12
6 -9 15 4 8 7 15 9 15 2 0 5 -7 9 -15z"/>
<path d="M5207 11864 c3 -8 11 -14 19 -14 21 0 17 17 -5 23 -14 3 -18 1 -14
-9z"/>
<path d="M4635 11839 c-4 -6 -5 -12 -2 -15 2 -3 7 2 10 11 7 17 1 20 -8 4z"/>
<path d="M8352 11701 c-10 -6 -10 -10 3 -21 13 -11 15 -9 15 9 0 24 0 24 -18
12z"/>
<path d="M8322 11609 c2 -6 8 -10 13 -10 5 0 11 4 13 10 2 6 -4 11 -13 11 -9
0 -15 -5 -13 -11z"/>
<path d="M8396 11544 c-3 -8 -2 -12 4 -9 6 3 10 -1 10 -9 0 -9 7 -16 15 -16
21 0 19 27 -4 39 -14 8 -20 7 -25 -5z"/>
<path d="M8361 11512 c-1 -8 -6 -10 -13 -6 -7 4 -10 3 -5 -1 12 -13 47 -16 47
-4 0 5 -4 8 -9 5 -5 -4 -12 0 -14 6 -4 10 -6 10 -6 0z"/>
<path d="M8439 11467 c-12 -36 4 -59 20 -28 8 14 7 20 -4 25 -8 3 -15 4 -16 3z"/>
<path d="M8354 11359 c-3 -6 -2 -15 4 -21 6 -6 11 -2 15 11 5 22 -7 29 -19 10z"/>
<path d="M8438 11314 c-8 -7 2 -44 12 -44 15 0 19 28 6 39 -7 6 -15 8 -18 5z"/>
<path d="M6510 11255 c0 -9 6 -12 15 -9 8 4 15 10 15 15 0 5 -7 9 -15 9 -8 0
-15 -7 -15 -15z"/>
<path d="M7767 11255 c-9 -21 11 -29 28 -11 20 19 19 26 -4 26 -10 0 -21 -7
-24 -15z"/>
<path d="M4837 11223 c-10 -9 -9 -23 1 -23 5 0 9 7 9 15 0 17 -1 18 -10 8z"/>
<path d="M8205 11220 c-3 -5 -1 -10 4 -10 6 0 11 5 11 10 0 6 -2 10 -4 10 -3
0 -8 -4 -11 -10z"/>
<path d="M8043 11203 c-20 -7 -15 -22 5 -20 10 0 19 7 19 14 0 14 -4 15 -24 6z"/>
<path d="M8500 11176 c0 -2 7 -6 15 -10 8 -3 15 -1 15 4 0 6 -7 10 -15 10 -8
0 -15 -2 -15 -4z"/>
<path d="M3431 11141 c-9 -6 -9 -11 2 -20 11 -9 17 -8 26 3 9 10 8 15 -2 19
-8 3 -19 2 -26 -2z"/>
<path d="M3636 11125 c3 -6 11 -12 18 -12 8 0 12 6 10 12 -3 6 -11 12 -18 12
-8 0 -12 -6 -10 -12z"/>
<path d="M2537 11033 c-11 -11 -8 -20 7 -20 8 0 12 6 9 14 -6 15 -7 15 -16 6z"/>
<path d="M1716 11005 c-3 -8 -1 -15 4 -15 6 0 10 7 10 15 0 8 -2 15 -4 15 -2
0 -6 -7 -10 -15z"/>
<path d="M3449 10988 c-10 -34 3 -63 15 -33 3 8 1 15 -5 15 -6 0 -7 5 -4 10 3
6 4 10 1 10 -3 0 -6 -1 -7 -2z"/>
<path d="M3593 10956 c0 -8 5 -14 11 -13 6 1 10 -4 8 -12 -3 -12 0 -12 12 -2
8 7 12 19 9 27 -7 18 -40 18 -40 0z"/>
<path d="M1470 10956 c0 -2 8 -10 18 -17 15 -13 16 -12 3 4 -13 16 -21 21 -21
13z"/>
<path d="M3360 10895 c-7 -9 -10 -18 -6 -22 3 -3 6 -1 6 6 0 7 4 10 8 7 5 -3
9 1 9 9 0 19 -2 19 -17 0z"/>
<path d="M2572 10869 c2 -6 8 -10 13 -10 5 0 11 4 13 10 2 6 -4 11 -13 11 -9
0 -15 -5 -13 -11z"/>
<path d="M3595 10830 c-3 -5 -1 -10 4 -10 6 0 11 5 11 10 0 6 -2 10 -4 10 -3
0 -8 -4 -11 -10z"/>
<path d="M3335 10720 c3 -5 11 -10 16 -10 6 0 7 5 4 10 -3 6 -11 10 -16 10 -6
0 -7 -4 -4 -10z"/>
<path d="M3330 10636 c0 -2 7 -7 16 -10 8 -3 12 -2 9 4 -6 10 -25 14 -25 6z"/>
<path d="M1675 10618 c-10 -24 -2 -38 12 -23 6 7 8 18 3 26 -7 11 -10 10 -15
-3z"/>
<path d="M3260 10612 c0 -4 10 -9 22 -9 18 -2 20 0 8 7 -18 12 -30 13 -30 2z"/>
<path d="M3383 10566 c5 -28 43 -34 43 -8 0 12 -8 18 -22 18 -13 0 -22 -5 -21
-10z"/>
<path d="M3357 10435 c-8 -8 -18 -11 -22 -7 -5 4 -5 2 -2 -4 4 -7 16 -14 27
-17 16 -4 20 0 20 19 0 28 -3 29 -23 9z"/>
<path d="M1605 10381 c-6 -11 9 -23 19 -14 9 9 7 23 -3 23 -6 0 -12 -4 -16 -9z"/>
<path d="M3355 10379 c-4 -6 -3 -15 3 -21 6 -6 11 -4 15 6 7 18 -9 31 -18 15z"/>
<path d="M8447 10315 c-16 -11 -16 -13 -2 -19 9 -3 13 -10 10 -16 -4 -6 -10
-8 -15 -5 -5 3 -11 -4 -15 -14 -6 -19 -41 -38 -52 -28 -2 3 -21 -1 -40 -9 -43
-18 -42 -19 -52 36 -1 3 -5 -1 -10 -9 -7 -10 -13 -11 -30 -2 -16 9 -26 9 -43
-1 -38 -21 -99 -19 -119 3 -17 20 -17 20 -32 -2 -9 -11 -20 -18 -25 -15 -6 3
-12 -1 -16 -9 -6 -17 -106 -22 -106 -5 0 6 -9 10 -20 10 -11 0 -20 -4 -20 -9
0 -5 -14 -9 -31 -9 -17 1 -35 -5 -41 -13 -7 -11 -11 -11 -15 -1 -7 18 -27 15
-41 -8 -13 -21 -72 -29 -72 -9 0 6 -6 9 -14 6 -8 -3 -17 -1 -20 6 -2 7 -5 2
-5 -11 -1 -13 3 -20 9 -17 6 4 7 -1 3 -11 -5 -15 -7 -15 -15 0 -12 21 -30 20
-27 -1 1 -10 1 -27 0 -38 -2 -19 -2 -19 -15 -2 -7 9 -20 17 -29 17 -8 0 -17 5
-19 11 -6 17 -45 1 -51 -20 -3 -14 -13 -19 -36 -17 -18 1 -32 -3 -36 -12 -2
-7 -9 -10 -15 -7 -5 3 -10 -1 -10 -10 0 -12 -7 -15 -27 -13 -21 2 -34 -4 -51
-24 -13 -15 -26 -27 -30 -27 -21 3 -42 -2 -38 -9 8 -14 -58 -8 -73 6 -15 15
-21 11 -25 -12 -1 -9 -6 -16 -11 -15 -4 0 -11 -5 -16 -13 -5 -7 -14 -13 -21
-13 -7 -1 -12 -5 -11 -10 0 -6 -5 -16 -13 -23 -8 -7 -14 -10 -14 -7 0 11 -58
-24 -63 -38 -3 -9 -17 -14 -36 -12 -17 1 -31 -2 -31 -7 0 -5 -5 -6 -12 -2 -6
4 -8 3 -5 -3 10 -16 -20 -36 -47 -31 -18 4 -23 1 -21 -11 2 -18 -30 -45 -44
-37 -5 4 -11 2 -13 -4 -1 -5 -15 -11 -30 -12 -21 -2 -25 -5 -17 -19 7 -13 3
-18 -15 -23 -13 -3 -26 -15 -29 -27 -3 -12 -10 -18 -15 -15 -5 3 -28 -12 -51
-34 -22 -21 -41 -37 -41 -33 0 3 -7 0 -15 -7 -9 -7 -14 -19 -11 -27 3 -7 -1
-13 -9 -13 -8 0 -15 -5 -15 -11 0 -6 -6 -9 -12 -6 -7 2 -22 -6 -34 -18 -11
-13 -30 -26 -41 -29 -20 -7 -28 -36 -9 -36 8 0 8 -2 0 -8 -6 -4 -13 -15 -17
-25 -4 -10 -11 -15 -17 -12 -5 3 -10 1 -10 -5 0 -6 -4 -9 -9 -6 -5 3 -12 -1
-15 -10 -3 -8 -2 -12 4 -9 6 3 10 1 10 -4 0 -6 -4 -11 -10 -11 -5 0 -10 -8
-10 -17 -1 -17 -1 -17 -14 0 -14 18 -76 24 -76 7 0 -9 14 -14 33 -11 4 0 8 -2
8 -6 9 -61 9 -61 -27 -59 -40 2 -65 -18 -37 -29 16 -6 14 -9 -10 -22 -21 -10
-27 -20 -24 -34 3 -12 0 -19 -9 -19 -26 0 -66 -48 -59 -70 4 -14 2 -20 -9 -21
-9 -1 -20 -3 -26 -4 -5 -1 -15 -3 -20 -4 -12 -1 -9 -38 3 -58 6 -10 2 -11 -17
-3 -16 6 -27 6 -31 0 -4 -6 -3 -10 0 -10 4 0 -1 -7 -9 -16 -19 -19 -22 -49 -3
-37 6 4 4 -5 -6 -20 -10 -15 -15 -31 -13 -36 9 -14 -22 -34 -44 -28 -18 5 -20
0 -20 -43 0 -43 -2 -48 -20 -45 -11 2 -20 1 -21 -3 -5 -44 -3 -67 7 -77 14
-14 1 -41 -15 -31 -7 4 -11 -1 -12 -13 -3 -42 -4 -46 -16 -47 -7 -1 -18 -2
-24 -3 -6 0 -9 -10 -6 -21 3 -11 1 -22 -4 -25 -4 -3 -5 -13 -2 -22 4 -11 3
-14 -5 -9 -8 5 -12 0 -12 -13 0 -12 -4 -21 -10 -21 -5 0 -10 -6 -10 -14 0 -19
-30 -44 -30 -25 -1 9 -4 8 -11 -4 -12 -20 -4 -51 10 -42 5 3 9 -9 9 -26 -1
-17 -6 -33 -12 -35 -17 -7 -16 -62 2 -69 13 -5 11 -10 -9 -33 -27 -29 -47 -67
-50 -92 -4 -37 2 -70 14 -82 8 -8 11 -21 7 -33 -5 -13 -9 -15 -14 -6 -6 9 -11
9 -24 -1 -13 -11 -14 -11 -7 1 5 10 4 12 -3 7 -19 -12 -14 -34 11 -48 12 -7
25 -12 28 -11 3 1 6 -4 6 -12 0 -8 -4 -12 -7 -10 -11 7 -50 -30 -50 -48 0 -8
-7 -18 -16 -21 -8 -3 -12 -11 -9 -17 4 -6 13 -8 21 -5 19 7 30 -14 13 -25 -12
-8 -12 -11 1 -19 12 -8 12 -12 3 -18 -7 -4 -14 -20 -15 -34 -1 -15 -5 -25 -9
-22 -4 2 -10 -3 -13 -12 -3 -8 -11 -12 -17 -8 -7 4 -9 -1 -7 -12 3 -13 11 -18
26 -17 22 3 30 -11 13 -22 -10 -5 -7 -37 4 -55 5 -9 1 -11 -20 -10 -10 1 -35
-28 -35 -40 0 -7 8 -10 20 -7 13 3 20 0 20 -9 0 -8 5 -14 10 -14 17 0 11 -30
-10 -53 l-21 -21 21 -8 c23 -9 27 -56 8 -89 -10 -17 -10 -23 0 -26 7 -3 12
-22 12 -44 0 -37 -7 -45 -35 -39 -5 1 -6 -2 -2 -7 12 -11 31 -11 40 2 4 6 10
5 17 -5 7 -11 5 -19 -8 -30 -18 -15 -18 -39 1 -51 14 -9 -2 -31 -16 -23 -7 4
-8 3 -4 -2 5 -5 13 -10 18 -10 5 -1 13 -2 19 -3 5 0 8 -11 6 -23 -2 -15 -9
-22 -20 -20 -9 2 -16 -4 -16 -13 0 -8 4 -15 9 -15 5 0 11 -10 13 -22 2 -15 9
-22 21 -22 16 2 22 -13 18 -43 -1 -7 5 -13 13 -13 11 0 13 -8 10 -27 -3 -15
-9 -32 -13 -38 -10 -14 -7 -40 5 -38 6 1 19 -14 29 -33 16 -30 17 -37 4 -45
-12 -7 -12 -9 1 -10 8 -1 19 -1 23 0 16 3 18 -28 3 -52 -15 -22 -15 -25 4 -42
11 -10 17 -23 13 -29 -4 -6 0 -5 9 2 14 11 16 10 14 -12 -2 -14 3 -27 11 -30
8 -3 11 -10 8 -16 -4 -6 -11 -8 -16 -5 -13 8 -11 -12 3 -38 7 -12 13 -26 14
-32 0 -5 2 -16 2 -22 1 -7 5 -12 10 -12 4 1 17 1 30 0 24 -1 27 -25 6 -48 -13
-13 -7 -63 7 -63 5 0 9 -9 9 -20 0 -11 -5 -20 -12 -20 -9 0 -9 -3 0 -12 15
-15 44 -17 53 -4 13 17 26 -4 24 -37 -2 -29 1 -34 18 -33 13 1 25 -10 36 -31
9 -18 26 -37 38 -44 12 -7 20 -15 18 -19 -3 -4 2 -13 10 -20 8 -7 13 -16 10
-20 -3 -5 -1 -11 5 -15 13 -8 13 -25 -1 -25 -5 0 -8 4 -5 9 3 5 -1 12 -9 15
-13 5 -13 1 1 -27 9 -17 23 -40 31 -49 14 -16 17 -16 39 -1 25 16 33 6 12 -15
-17 -17 7 -66 28 -58 8 3 12 2 9 -4 -3 -6 -1 -10 4 -10 6 0 11 -12 11 -26 0
-21 4 -25 20 -21 11 3 20 1 20 -5 0 -5 5 -6 10 -3 6 3 10 1 10 -4 0 -6 -5 -11
-10 -11 -7 0 -7 -6 0 -20 8 -15 15 -18 34 -10 21 8 24 6 28 -21 3 -18 0 -33
-8 -37 -8 -4 -10 -13 -5 -20 6 -11 12 -10 26 4 17 17 18 17 36 -4 10 -13 15
-30 12 -37 -3 -10 1 -15 12 -15 13 0 16 -6 12 -21 -3 -12 -3 -18 0 -15 4 3 12
1 20 -5 7 -6 13 -8 13 -3 0 5 4 3 9 -5 5 -8 22 -14 38 -15 24 -1 28 -5 27 -28
0 -30 14 -36 35 -15 10 10 11 9 6 -5 -4 -11 -2 -18 4 -18 6 0 11 -5 11 -11 0
-14 26 -40 33 -32 4 3 14 2 24 -1 13 -5 14 -9 5 -15 -9 -6 -8 -13 7 -30 11
-12 22 -22 25 -22 20 3 26 -1 26 -15 0 -8 7 -23 16 -32 15 -15 18 -14 30 3 8
10 14 14 14 8 0 -7 11 -10 28 -7 23 3 25 2 12 -8 -26 -22 -24 -48 3 -48 26 0
42 -21 27 -36 -5 -5 -5 -15 0 -24 9 -13 11 -13 19 -1 10 16 45 25 35 10 -5 -9
4 -12 38 -12 10 0 15 -4 11 -10 -4 -6 0 -8 10 -4 10 3 17 2 17 -2 0 -5 9 -7
20 -4 12 3 20 2 19 -3 -4 -23 2 -42 17 -48 9 -4 13 -2 8 5 -5 8 -2 9 11 2 10
-6 26 -8 35 -6 13 3 17 -2 17 -19 1 -44 3 -48 26 -44 12 1 20 7 19 11 -4 9 18
25 34 25 22 0 25 -30 4 -38 -13 -5 -16 -11 -11 -21 7 -11 12 -10 27 5 11 11
25 18 32 18 6 -1 23 -2 37 -3 19 -1 25 -6 23 -18 -2 -11 5 -19 17 -21 28 -6
57 -33 51 -49 -6 -16 -9 -15 86 -17 42 -1 74 2 72 5 -5 8 27 22 34 15 2 -3 1
-13 -3 -23 -13 -30 -13 -40 -1 -41 6 0 20 -2 31 -4 12 -2 21 3 21 12 1 8 2 20
3 26 1 14 44 13 53 -2 4 -6 5 -21 3 -34 -2 -12 -2 -20 2 -17 3 4 15 2 26 -4
14 -8 18 -8 12 1 -5 8 0 7 14 -2 12 -7 21 -18 21 -25 0 -8 7 -9 30 0 17 6 30
15 30 19 0 4 12 8 26 8 14 0 23 -4 20 -9 -9 -14 3 -38 19 -38 8 0 15 4 15 9 0
4 7 8 15 8 19 0 20 19 1 26 -8 3 -12 12 -9 20 4 11 7 11 20 -1 8 -9 20 -12 26
-8 31 20 44 5 38 -44 -1 -7 3 -13 9 -13 6 0 8 -6 5 -12 -4 -7 0 -5 8 5 14 17
47 14 47 -4 0 -5 9 -9 19 -9 11 0 23 -4 26 -10 12 -19 35 -10 35 14 0 19 4 23
20 19 10 -3 22 -14 26 -25 6 -18 7 -19 25 -2 10 9 19 13 19 8 0 -5 6 -2 13 6
21 26 40 24 33 -3 -5 -23 -4 -24 44 -24 42 0 54 4 70 25 21 27 30 25 34 -5 4
-27 71 -26 71 2 0 11 7 20 15 20 8 0 20 4 26 8 7 4 14 -1 17 -13 3 -13 14 -20
29 -20 33 0 39 8 27 34 -9 19 -9 19 4 4 8 -10 23 -16 35 -13 12 2 24 0 27 -6
4 -5 13 -9 22 -9 10 0 14 6 10 20 -4 15 -1 20 11 18 10 -2 20 -7 24 -12 9 -13
37 -16 44 -5 3 5 16 9 30 9 18 0 23 4 18 12 -6 10 -5 10 7 1 20 -16 83 7 121
46 17 17 35 31 42 31 8 0 8 -3 0 -8 -6 -4 -13 -14 -16 -23 -5 -13 0 -15 28
-14 19 2 45 10 59 19 14 9 25 14 25 11 0 -4 7 0 15 7 42 38 65 46 65 23 0 -18
20 -20 21 -2 0 6 1 26 2 42 2 27 22 45 22 20 1 -37 67 -40 97 -5 16 20 45 29
33 10 -3 -5 3 -10 14 -10 11 0 23 5 26 10 3 6 14 10 23 10 20 0 47 28 47 48 0
7 -6 17 -14 21 -9 6 -11 14 -4 26 13 22 23 21 37 -6 6 -12 17 -24 25 -27 8 -3
11 0 7 6 -3 6 -1 14 5 17 5 4 8 13 6 19 -7 17 26 36 43 26 8 -5 18 -6 22 -4 4
3 8 0 8 -6 0 -6 6 -17 12 -24 11 -11 15 -11 25 3 8 10 15 12 20 6 8 -10 33
-19 33 -12 0 11 -38 46 -44 40 -3 -3 -6 1 -6 10 0 12 8 15 30 12 17 -2 36 -7
43 -11 6 -4 9 -4 6 0 -9 9 95 113 118 118 10 2 17 11 15 21 -3 15 8 21 30 19
3 -1 11 5 18 13 6 7 19 11 27 8 10 -4 14 -2 9 5 -3 6 3 13 14 17 11 3 19 9 19
13 -3 18 2 26 9 14 6 -9 14 -6 30 13 17 19 18 25 7 25 -8 0 -15 4 -15 9 0 13
28 22 35 11 4 -6 15 -10 26 -10 12 0 17 4 14 11 -11 16 -13 59 -4 64 4 3 10 1
14 -5 9 -15 45 -12 51 5 4 8 10 12 15 9 5 -3 9 4 9 15 0 14 6 21 20 21 17 0
20 6 18 33 -1 17 -5 37 -10 44 -11 13 9 12 31 -2 10 -5 16 -4 19 3 2 6 10 8
18 5 7 -3 11 -10 8 -17 -4 -6 1 -3 11 6 17 16 17 18 1 33 -19 20 -17 24 13 30
32 6 43 15 37 32 -3 8 -1 11 4 8 6 -3 10 -1 10 5 0 6 5 8 11 5 7 -5 8 5 3 30
-5 30 -3 40 15 56 17 16 21 17 21 4 0 -8 4 -15 9 -15 12 0 32 25 26 32 -3 3
15 26 40 52 25 26 45 53 45 60 0 17 46 56 56 48 4 -4 5 0 1 9 -6 19 26 73 38
62 4 -5 5 4 1 20 -3 15 -3 27 2 27 4 0 8 9 9 20 1 13 -2 18 -9 14 -6 -4 -3 5
8 19 10 15 28 27 38 27 11 0 16 -3 13 -6 -3 -4 -1 -16 4 -27 9 -16 13 -17 20
-6 11 18 12 42 0 35 -12 -8 -21 30 -9 42 5 5 10 22 12 38 2 21 9 30 25 32 18
3 22 10 21 35 -3 49 -1 59 10 52 6 -3 10 1 10 9 0 9 5 16 11 16 6 0 17 7 26
15 8 8 20 13 26 9 7 -3 1 5 -13 18 -14 13 -26 34 -26 48 0 29 23 47 39 31 6
-6 15 -11 19 -11 13 0 9 27 -5 39 -19 15 -15 41 11 85 14 24 26 35 35 30 8 -5
8 -2 -2 9 -9 12 -10 17 -2 17 39 0 76 82 43 95 -8 3 -11 12 -8 20 3 8 1 15 -3
15 -5 0 -1 17 9 38 10 20 14 39 9 40 -5 2 -6 8 -3 13 3 6 0 17 -7 25 -11 13
-10 17 3 25 17 9 18 45 1 42 -19 -4 -6 40 16 51 12 7 19 14 16 17 -3 3 8 18
25 32 16 15 30 33 30 40 0 9 3 8 9 -2 6 -9 11 -10 15 -2 4 6 2 12 -3 12 -6 1
-17 2 -23 3 -7 1 -21 -4 -30 -12 -15 -12 -19 -12 -33 1 -19 20 -16 34 12 66
17 19 20 28 11 38 -8 10 -8 17 2 26 10 9 11 9 6 0 -4 -7 -3 -13 2 -13 15 0 24
32 12 44 -7 7 -10 6 -10 -2 0 -7 -7 -12 -15 -12 -8 0 -15 8 -15 18 0 10 -5 23
-11 29 -8 8 -5 17 12 34 13 13 23 27 22 31 -2 5 2 8 8 8 5 0 8 4 5 8 -3 5 4
16 15 25 20 18 25 37 10 37 -5 0 -12 11 -15 25 -4 14 -11 25 -17 25 -6 0 -7 5
-4 10 3 6 -2 10 -12 10 -15 0 -16 2 -3 10 8 5 15 17 15 27 1 10 6 17 11 16 6
-1 11 3 11 10 0 7 2 19 4 27 3 9 -3 14 -16 14 -26 0 -34 14 -30 49 2 16 -3 40
-12 53 -8 13 -12 24 -8 24 4 0 2 6 -4 14 -9 11 -8 17 6 28 22 16 23 35 3 48
-8 5 -11 10 -6 10 5 0 -1 11 -13 24 -12 13 -18 27 -13 30 5 3 8 22 5 42 -3 27
-1 34 9 28 10 -6 11 -5 1 8 -7 8 -10 18 -6 21 3 4 1 7 -5 7 -7 0 -12 9 -12 19
0 10 -6 21 -14 24 -9 4 -13 20 -13 46 1 23 -2 41 -6 41 -5 0 -5 5 -1 11 3 6
18 8 33 5 14 -4 22 -3 16 1 -5 4 -10 15 -10 23 0 8 -6 16 -12 16 -7 1 -18 2
-24 3 -5 0 -7 7 -3 14 6 9 5 9 -8 -1 -21 -17 -36 3 -33 46 1 19 -3 36 -10 38
-12 5 -15 19 -15 62 0 15 -6 22 -20 22 -18 0 -25 10 -21 33 0 4 -3 7 -8 7 -5
0 -11 11 -13 24 -4 21 -2 24 19 20 19 -4 23 0 23 21 0 16 -6 25 -15 25 -17 0
-65 40 -49 40 5 0 1 5 -8 11 -9 5 -15 16 -12 24 4 8 9 13 13 11 4 -3 7 6 7 18
0 12 -6 23 -12 23 -7 0 -13 -3 -12 -6 2 -18 -4 -21 -23 -10 -17 9 -19 13 -8
20 9 5 10 9 2 9 -13 0 -11 28 3 38 13 10 14 42 0 39 -6 -1 -10 6 -10 15 1 10
-2 15 -7 12 -5 -3 -9 0 -9 7 0 7 -6 4 -14 -6 -11 -16 -17 -17 -29 -7 -8 7 -13
24 -11 38 1 15 -4 28 -12 31 -8 3 -11 9 -8 14 8 14 -29 70 -44 64 -7 -2 -17 5
-22 18 -5 12 -9 18 -9 14 -1 -5 -7 -2 -14 5 -18 18 -42 62 -30 55 6 -4 15 4
21 16 17 35 22 58 13 53 -5 -3 -11 1 -15 9 -3 9 -12 12 -21 8 -13 -4 -14 -8
-4 -14 20 -12 17 -55 -3 -56 -10 -1 -18 4 -18 11 0 7 -11 22 -25 32 -22 17
-23 20 -10 40 16 25 8 32 -37 30 -17 -1 -28 4 -28 11 0 7 -5 13 -10 13 -13 0
-9 32 5 42 16 12 -4 22 -40 20 -26 -2 -35 1 -35 13 0 8 -5 15 -12 15 -6 0 -8
3 -5 6 3 4 2 15 -3 24 -7 13 -5 20 7 24 14 6 14 8 -2 26 -10 11 -28 20 -39 20
-13 0 -17 -3 -9 -8 18 -11 20 -36 3 -37 -21 -1 -40 18 -30 30 20 24 -3 68 -31
60 -36 -12 -57 3 -53 36 4 30 2 31 -27 27 -16 -3 -32 -1 -35 4 -3 5 -10 5 -16
2 -6 -4 -8 -2 -4 4 3 6 2 13 -2 16 -5 3 -7 17 -4 31 3 17 0 25 -9 25 -11 0
-11 2 1 10 10 6 11 10 3 10 -7 0 -13 7 -13 15 0 8 -4 15 -10 15 -5 0 -10 7
-10 15 0 8 -4 15 -8 15 -5 0 -19 9 -32 20 -27 23 -39 19 -19 -7 11 -13 11 -15
1 -9 -11 7 -12 4 -3 -13 7 -11 8 -21 4 -21 -4 0 -1 -5 7 -10 12 -8 11 -10 -7
-10 -13 0 -23 4 -23 9 0 5 -9 7 -20 4 -14 -4 -25 4 -41 31 -11 20 -26 36 -32
36 -7 0 -4 7 7 15 10 7 15 18 11 24 -10 16 -28 13 -22 -4 5 -11 -2 -13 -35
-10 -23 3 -45 10 -48 16 -4 6 -10 10 -14 10 -20 -3 -26 0 -21 9 3 6 1 10 -5
10 -7 0 -10 6 -7 13 5 17 -34 51 -43 36 -5 -7 -11 -6 -21 3 -8 7 -25 13 -39
12 -34 -2 -46 7 -45 35 0 30 -17 37 -39 15 -15 -15 -18 -15 -41 0 -14 9 -25
21 -25 27 0 6 -7 9 -15 6 -8 -4 -17 -2 -20 4 -4 5 -10 7 -15 4 -5 -3 -12 6
-16 20 -3 13 -11 22 -16 19 -6 -4 -14 0 -19 7 -7 12 -9 11 -9 -1 0 -12 -2 -12
-9 -2 -5 8 -32 14 -65 16 -31 2 -59 6 -63 9 -3 4 -1 7 6 7 7 0 10 4 6 9 -3 5
7 19 21 30 28 22 27 38 -1 28 -8 -4 -14 -12 -13 -18 2 -6 -6 -13 -17 -15 -11
-1 -25 -10 -31 -19 -10 -13 -13 -13 -24 0 -7 8 -24 13 -41 11 -30 -4 -34 11
-9 31 13 10 13 11 0 10 -8 -2 -21 -7 -29 -11 -9 -6 -12 -5 -8 1 4 6 0 14 -9
17 -22 8 -26 8 -19 -4 9 -14 -36 -29 -56 -19 -9 4 -19 5 -23 2 -3 -3 -6 -2 -6
3 0 10 -34 16 -100 18 -19 1 -45 7 -57 14 -13 7 -23 9 -23 4 0 -4 -16 -6 -35
-4 -20 2 -32 8 -29 14 4 6 -1 8 -13 4 -22 -7 -75 35 -71 56 2 7 -3 12 -11 10
-7 -1 -20 5 -30 15 -20 23 -32 25 -54 8z m-107 -594 c0 -4 16 -7 35 -7 19 0
36 -4 37 -9 5 -28 39 -42 72 -29 12 5 13 10 5 26 -7 12 -7 18 -1 14 5 -3 13 2
17 12 6 15 8 14 16 -6 4 -12 6 -28 4 -35 -3 -6 6 -17 20 -23 15 -7 25 -8 27
-2 2 6 15 4 31 -3 21 -10 30 -10 36 -1 8 14 49 12 55 -4 2 -6 16 -10 30 -9 14
2 26 -1 26 -6 0 -5 9 -9 20 -9 11 0 20 5 20 12 0 6 3 8 7 5 3 -4 12 -2 20 4
10 9 13 7 13 -6 0 -10 3 -16 6 -13 3 4 14 -2 24 -12 12 -12 26 -16 41 -13 17
5 21 3 17 -9 -4 -10 0 -14 15 -12 12 1 23 3 25 3 1 1 5 1 8 0 4 0 11 5 15 13
5 7 9 8 9 3 0 -6 9 -11 20 -12 13 -1 18 2 14 9 -5 7 -2 8 5 4 7 -5 10 -14 7
-22 -4 -9 2 -14 15 -14 12 0 17 -4 13 -11 -4 -8 0 -8 15 0 18 10 20 9 14 -6
-3 -10 -3 -15 2 -11 4 4 14 1 22 -7 19 -19 33 -19 33 0 0 18 16 20 23 3 3 -9
10 -7 21 7 8 11 16 16 16 10 1 -5 3 -17 5 -26 1 -9 -1 -23 -6 -30 -8 -12 -10
-12 -18 0 -5 8 -11 9 -15 3 -3 -6 1 -18 10 -27 14 -13 19 -14 25 -3 5 7 9 9 9
3 0 -5 4 -4 9 4 5 8 19 16 31 18 12 2 19 -1 15 -6 -6 -10 70 -91 86 -91 5 0 9
-7 9 -15 0 -8 5 -15 12 -15 6 0 8 3 5 7 -4 3 1 12 11 19 21 16 32 17 32 3 0
-5 -4 -8 -8 -5 -5 3 -9 -8 -10 -23 0 -24 3 -28 19 -24 10 3 19 1 19 -5 0 -12
18 -11 40 3 10 6 9 2 -3 -12 -17 -20 -17 -21 9 -27 20 -5 25 -12 21 -26 -6
-22 8 -36 18 -20 4 6 10 8 15 5 4 -3 10 4 13 15 3 11 10 20 16 20 6 0 8 -7 5
-15 -5 -13 1 -17 22 -14 17 2 22 -27 7 -38 -15 -12 -15 -13 -1 -13 9 0 23 -7
32 -15 8 -9 21 -14 28 -13 8 2 13 -6 12 -18 0 -11 5 -21 10 -22 43 -4 54 -7
50 -14 -3 -4 4 -8 16 -8 11 0 20 -6 19 -12 -5 -37 2 -50 21 -45 13 3 20 0 20
-10 0 -8 5 -11 12 -7 8 5 9 2 5 -10 -4 -10 -3 -15 3 -11 6 3 10 -1 10 -9 0 -9
7 -16 16 -16 8 0 13 -4 10 -8 -3 -5 6 -15 20 -23 14 -7 30 -22 36 -32 8 -15 7
-18 -4 -12 -7 3 -5 0 4 -8 14 -11 15 -16 5 -27 -10 -10 -8 -12 10 -7 16 4 20
1 16 -11 -4 -8 -2 -13 3 -10 5 3 20 1 34 -4 20 -7 22 -11 10 -18 -8 -5 -16
-18 -16 -29 -1 -11 3 -18 7 -15 5 3 9 0 9 -6 0 -6 5 -8 10 -5 6 3 10 1 10 -5
0 -7 6 -10 14 -7 8 3 17 -1 20 -9 3 -8 0 -14 -7 -15 -9 0 -9 -2 1 -6 6 -2 12
-11 12 -18 0 -8 9 -16 20 -20 11 -3 19 -9 19 -13 -3 -22 3 -32 21 -32 11 0 20
-5 20 -11 0 -5 -6 -7 -12 -4 -7 4 -3 -3 10 -14 29 -25 39 -65 14 -57 -11 3 -9
0 5 -10 20 -14 21 -18 7 -31 -11 -12 -12 -18 -3 -29 6 -8 18 -14 25 -14 16 0
46 -54 36 -64 -3 -4 8 -4 27 -1 18 3 30 2 27 -3 -11 -18 -15 -86 -5 -103 6
-12 5 -20 -2 -25 -8 -5 -7 -10 4 -16 9 -5 14 -15 11 -22 -8 -20 14 -30 32 -15
12 10 13 9 8 -5 -3 -9 -1 -16 5 -16 17 0 13 -17 -14 -61 l-26 -40 25 16 c24
16 44 7 31 -15 -3 -5 -3 -15 1 -22 13 -21 14 -61 1 -77 -7 -8 -7 -12 -2 -9 6
4 17 -2 24 -14 7 -11 8 -17 2 -14 -6 4 -9 1 -6 -6 3 -7 15 -18 27 -23 14 -7
23 -20 24 -37 0 -16 -3 -25 -9 -21 -6 4 -8 0 -4 -10 3 -9 0 -18 -9 -21 -8 -3
-14 -15 -14 -26 0 -23 10 -26 28 -8 9 9 12 9 12 -3 0 -8 -5 -20 -12 -27 -15
-15 -18 -92 -4 -93 6 0 2 -4 -9 -9 -11 -5 -14 -9 -7 -9 6 -1 12 -7 12 -15 0
-8 4 -16 10 -18 6 -2 4 -14 -5 -30 -7 -16 -10 -28 -5 -28 5 0 6 -7 3 -17 -4
-10 -2 -14 5 -9 13 8 10 -32 -3 -54 -13 -21 -13 -33 2 -48 7 -7 13 -24 13 -38
0 -13 4 -24 9 -24 10 0 9 -25 -1 -35 -3 -4 -9 -1 -14 6 -5 8 -3 10 6 4 9 -5
11 -4 6 4 -6 9 -11 9 -22 0 -13 -10 -12 -15 3 -32 10 -11 12 -17 6 -13 -13 7
-18 -10 -14 -42 1 -8 -7 -16 -18 -19 -13 -3 -18 -10 -14 -17 19 -28 2 -56 -30
-50 -12 2 -16 2 -9 -2 6 -3 9 -10 6 -16 -4 -6 2 -6 14 1 28 15 37 14 23 -3 -8
-9 -8 -16 -2 -20 6 -4 4 -17 -5 -34 -8 -15 -12 -39 -8 -54 4 -18 1 -28 -6 -28
-9 0 -9 -5 1 -17 10 -11 10 -17 3 -20 -6 -2 -9 -15 -6 -29 4 -24 3 -25 -17
-15 -11 7 -21 8 -22 4 0 -4 -2 -21 -4 -37 -2 -15 -1 -26 1 -23 3 3 15 -4 26
-15 15 -15 17 -22 7 -34 -10 -13 -14 -12 -31 3 -18 16 -19 16 -9 -10 9 -23 8
-27 -7 -27 -15 0 -15 -2 -2 -10 13 -8 12 -10 -4 -10 -13 0 -16 -5 -12 -16 4
-11 2 -15 -8 -11 -17 7 -27 -13 -21 -42 2 -12 -1 -20 -8 -18 -15 3 -16 -45 -1
-60 16 -16 6 -63 -12 -56 -8 3 -11 9 -8 14 3 5 -4 9 -15 9 -14 0 -23 -9 -27
-25 -3 -14 -10 -23 -14 -20 -5 3 -7 -6 -4 -19 3 -19 -1 -26 -17 -31 -15 -5
-18 -9 -9 -15 9 -6 9 -10 -3 -16 -15 -9 -17 -12 -17 -35 0 -5 -4 -7 -10 -4 -5
3 -10 -1 -10 -9 0 -9 -5 -16 -11 -16 -6 0 -9 -7 -5 -15 3 -9 0 -15 -9 -15 -8
0 -15 -3 -16 -7 -1 -5 -2 -21 -4 -37 -1 -16 -9 -33 -19 -38 -9 -5 -16 -16 -16
-23 0 -8 -4 -15 -9 -15 -5 0 -8 -11 -5 -24 4 -24 -18 -42 -36 -31 -5 3 -16 -5
-24 -17 -9 -12 -16 -19 -16 -15 0 5 -5 5 -11 1 -8 -4 -7 -9 2 -15 10 -6 4 -12
-21 -22 -36 -16 -64 -12 -53 6 3 5 1 7 -5 3 -5 -3 -12 0 -15 6 -2 7 -3 -5 -3
-27 1 -27 6 -39 14 -37 10 2 10 -3 3 -17 -6 -10 -7 -22 -3 -26 4 -5 1 -5 -5
-1 -12 6 -18 -5 -14 -26 0 -4 -10 -10 -24 -14 -14 -3 -22 -10 -19 -15 3 -5 -3
-9 -13 -9 -14 0 -15 -2 -4 -9 9 -6 10 -11 2 -15 -6 -4 -8 -13 -4 -19 4 -7 -2
-5 -12 3 -11 9 -16 10 -11 3 4 -7 2 -13 -3 -13 -6 0 -10 -6 -8 -12 1 -7 -4
-12 -12 -10 -8 2 -11 -3 -8 -13 5 -10 0 -15 -13 -15 -10 0 -23 -6 -27 -12 -4
-7 -15 -13 -23 -13 -8 0 -14 -5 -13 -12 2 -7 -4 -10 -13 -6 -9 3 -19 1 -23 -5
-3 -6 -13 -12 -21 -14 -8 -2 -21 -9 -28 -16 -8 -7 -18 -10 -23 -6 -6 3 -16 0
-24 -6 -8 -7 -15 -9 -15 -6 0 4 -6 1 -14 -6 -8 -7 -12 -16 -10 -19 2 -4 -3
-12 -10 -18 -10 -8 -16 -9 -21 -1 -4 6 -12 4 -23 -6 -10 -11 -17 -13 -20 -6
-2 8 -7 8 -17 -1 -7 -7 -11 -15 -8 -19 2 -5 -1 -8 -7 -8 -6 0 -9 -4 -6 -9 9
-13 -31 -20 -43 -8 -11 11 -15 -3 -14 -40 1 -7 -3 -13 -9 -13 -5 0 -7 -4 -4
-9 7 -11 -17 -21 -54 -21 -22 0 -27 4 -26 22 0 11 -5 23 -13 26 -8 3 -11 0 -7
-6 3 -6 1 -14 -4 -17 -6 -4 -15 -17 -20 -29 -6 -18 -15 -22 -41 -20 -26 2 -39
-5 -72 -39 -22 -23 -37 -37 -33 -30 3 6 0 18 -8 26 -8 8 -13 17 -10 20 3 3 -1
4 -10 3 -8 -1 -19 -5 -22 -9 -10 -10 -26 -9 -20 2 3 5 -1 14 -8 20 -11 10 -14
9 -12 -2 1 -8 7 -21 13 -29 10 -11 7 -17 -10 -28 -12 -8 -29 -14 -37 -14 -8 0
-18 -5 -22 -11 -5 -6 -8 -5 -8 3 0 7 -4 10 -10 7 -13 -8 -13 8 0 21 7 7 2 10
-14 10 -14 0 -22 -4 -19 -9 3 -4 -4 -11 -16 -14 -12 -3 -21 -10 -21 -15 0 -5
4 -7 9 -4 5 4 7 -3 4 -14 -6 -21 -31 -22 -55 -3 -17 14 -50 11 -56 -5 -2 -7
-9 -9 -15 -5 -7 4 -8 0 -4 -11 5 -12 3 -15 -6 -9 -20 13 -76 9 -82 -6 -8 -20
-45 15 -40 38 2 10 -3 18 -11 18 -8 0 -13 -6 -10 -13 3 -8 1 -16 -5 -19 -5 -4
-6 -11 -3 -17 4 -7 2 -8 -4 -4 -7 4 -12 4 -12 -1 0 -4 -11 -9 -25 -9 -16 -1
-22 2 -18 10 4 6 -2 4 -12 -4 -11 -9 -16 -10 -11 -2 9 16 -16 16 -32 0 -9 -9
-12 -8 -12 4 0 9 -5 20 -12 24 -6 4 -8 3 -5 -3 4 -6 -3 -13 -16 -17 -17 -4
-19 -8 -9 -15 11 -7 11 -9 -2 -14 -9 -4 -16 -1 -16 5 0 6 -6 5 -17 -3 -15 -12
-16 -12 -8 1 8 13 6 13 -8 2 -14 -12 -19 -11 -38 7 -13 12 -24 28 -25 37 -4
24 -10 26 -28 9 -9 -9 -13 -21 -10 -27 4 -6 -2 -6 -15 1 -18 10 -20 9 -15 -6
5 -17 5 -17 -9 0 -13 16 -15 16 -21 1 -5 -13 -9 -14 -21 -4 -12 10 -18 10 -32
-1 -11 -10 -14 -10 -9 -1 5 9 -3 12 -32 12 -47 0 -104 18 -96 31 3 5 -6 8 -20
7 -15 -1 -26 -7 -26 -12 0 -5 -6 -1 -14 9 -11 16 -17 17 -29 7 -12 -10 -17
-10 -23 -1 -5 8 -3 9 6 4 9 -6 11 -4 6 4 -5 7 -14 10 -22 7 -8 -3 -14 0 -14 7
0 8 -3 8 -8 2 -11 -17 -72 -15 -72 1 0 8 -5 14 -11 14 -5 0 -8 4 -5 8 2 4 -4
8 -14 8 -10 0 -17 -3 -14 -7 6 -10 -26 -20 -38 -13 -5 3 -13 16 -18 28 -6 15
-9 17 -9 4 -1 -11 -7 -15 -21 -11 -11 3 -20 10 -19 17 3 25 -13 54 -27 49 -20
-7 -17 -18 8 -30 19 -8 20 -10 4 -16 -9 -4 -15 -3 -11 3 3 5 -9 6 -30 3 -24
-4 -35 -2 -35 6 0 7 -4 10 -8 7 -5 -3 -19 6 -30 19 -12 14 -29 25 -38 25 -8 0
-13 3 -11 8 3 4 -1 13 -9 20 -8 7 -14 10 -14 6 0 -3 -6 -1 -13 5 -8 6 -17 8
-21 4 -4 -4 -4 1 0 11 5 14 4 17 -4 12 -7 -4 -19 -1 -27 7 -8 8 -25 12 -38 10
-19 -4 -27 0 -32 16 -3 12 -13 21 -21 21 -8 0 -14 5 -14 12 0 6 -3 8 -7 5 -3
-4 -12 -2 -19 4 -8 7 -14 7 -19 -1 -10 -16 -21 -12 -21 10 0 11 4 20 8 20 12
0 10 38 -2 45 -15 10 -42 -16 -35 -33 4 -10 0 -12 -11 -8 -8 3 -20 6 -25 6 -6
0 -7 5 -4 10 3 6 -2 10 -11 10 -10 0 -14 3 -11 7 4 3 -1 15 -10 26 -10 11 -12
17 -5 13 6 -4 12 -2 12 3 0 6 -5 11 -11 11 -5 0 -7 5 -3 11 4 8 0 8 -14 0 -18
-10 -24 -8 -37 13 -10 14 -23 22 -30 19 -16 -5 -48 21 -38 31 4 3 1 6 -6 6
-22 0 -40 25 -30 42 7 13 5 15 -11 11 -12 -3 -20 0 -20 6 0 7 5 9 12 5 7 -4 8
-3 4 4 -4 6 -13 9 -21 6 -8 -4 -12 -11 -8 -18 4 -6 -4 -4 -17 5 -14 9 -27 25
-29 34 -4 24 -26 46 -36 37 -4 -4 -6 -2 -5 3 5 21 0 36 -10 30 -5 -3 -10 -1
-10 6 0 8 -3 9 -13 0 -11 -9 -13 -4 -12 24 2 19 8 41 14 49 9 10 8 15 -4 20
-9 3 -13 2 -10 -4 11 -18 -9 -38 -30 -29 -11 4 -14 8 -7 8 6 1 12 6 12 11 0 6
-8 10 -17 8 -23 -4 -25 32 -3 50 8 8 10 11 3 8 -6 -4 -15 -2 -18 4 -4 6 -3 10
2 9 4 -1 16 -1 26 0 17 1 17 2 2 17 -15 15 -18 15 -38 -2 -20 -17 -20 -17 -8
-1 13 16 12 18 -12 13 -15 -3 -27 0 -27 5 0 6 -4 7 -10 4 -5 -3 -10 -1 -10 5
0 6 -5 8 -12 4 -8 -5 -8 -1 1 10 10 12 11 20 4 24 -6 4 -9 22 -8 40 2 32 -9
44 -18 20 -4 -10 -7 -10 -18 0 -12 11 -12 14 1 22 10 7 11 10 3 10 -7 0 -13 6
-13 13 0 8 -12 19 -26 25 -14 7 -22 17 -19 22 4 6 1 9 -7 8 -13 -3 -16 28 -7
61 3 10 -4 15 -21 15 -19 1 -25 7 -25 22 -1 12 -7 30 -15 40 -11 13 -11 16 -2
10 11 -7 12 -4 3 13 -12 22 -27 30 -16 9 4 -7 0 -5 -8 4 -8 10 -17 14 -21 10
-4 -4 -6 0 -4 8 2 8 8 19 15 25 13 12 0 55 -17 55 -6 0 -9 4 -5 9 3 5 -1 16
-9 24 -8 8 -12 17 -9 21 3 3 -2 8 -11 12 -14 5 -14 9 -4 22 7 9 9 13 3 10 -5
-3 -10 4 -10 17 0 16 5 21 15 17 8 -2 6 2 -5 11 -11 8 -22 14 -25 12 -3 -2 -7
7 -8 20 -1 14 6 28 16 34 16 10 16 10 0 11 -11 0 -16 7 -15 20 1 11 4 20 8 20
4 0 9 9 12 21 4 16 3 18 -8 9 -11 -10 -13 -8 -10 9 2 14 -1 18 -11 14 -8 -3
-14 1 -14 11 0 9 -5 16 -11 16 -8 0 -7 6 2 17 10 11 10 14 2 9 -9 -5 -13 1
-13 23 0 16 -6 31 -12 33 -14 5 -12 76 2 93 5 6 2 19 -6 29 -7 10 -11 23 -8
27 3 5 0 9 -5 9 -6 0 -11 5 -11 11 0 5 4 7 10 4 6 -3 7 1 4 9 -3 9 -9 14 -13
12 -4 -3 -7 4 -7 15 0 10 5 19 11 19 5 0 3 5 -5 10 -8 5 -10 10 -5 10 7 0 10
21 7 56 -2 40 0 54 8 49 9 -5 11 14 8 69 -2 46 1 76 7 76 6 0 4 4 -4 9 -7 5
-9 11 -4 14 5 3 9 18 8 34 0 15 5 34 12 41 7 8 11 18 7 23 -3 6 0 16 6 24 7 9
8 15 2 15 -5 0 -12 9 -15 20 -3 11 0 20 6 20 9 0 8 3 0 8 -9 6 -6 15 12 34 26
28 33 44 15 33 -21 -13 -9 16 15 37 23 20 23 22 7 34 -9 7 -14 16 -10 20 4 4
3 13 -3 21 -9 10 -8 13 1 13 7 0 10 6 7 14 -3 8 -1 16 4 18 6 2 11 10 12 18 2
8 5 20 8 25 4 6 9 23 13 38 4 15 11 25 17 22 11 -7 8 17 -4 26 -12 9 3 39 20
39 8 0 12 -4 9 -8 -3 -5 1 -9 9 -9 22 0 26 35 4 42 -19 6 -19 7 -1 33 11 15
18 37 17 49 -1 15 5 23 22 28 13 3 21 9 18 14 -2 5 1 11 9 14 7 3 12 18 11 34
-2 35 3 46 18 35 11 -7 21 -8 43 -3 3 0 2 6 -1 11 -5 8 -12 7 -23 -2 -13 -12
-14 -10 -4 9 14 26 15 36 3 29 -5 -3 -11 7 -13 23 -3 23 -1 28 11 23 9 -3 13
-2 9 3 -4 4 0 14 10 21 11 9 13 13 4 14 -7 0 -10 5 -7 10 4 6 10 8 15 5 4 -3
7 6 5 20 -1 15 3 25 10 25 7 0 18 7 25 15 11 13 10 15 -6 10 -13 -4 -12 -2 4
6 12 7 22 16 22 22 0 5 7 7 15 3 8 -3 15 -1 15 5 0 6 6 7 13 3 7 -5 6 0 -3 11
-9 11 -10 16 -2 11 15 -9 16 6 2 20 -7 7 -7 11 2 12 13 1 48 9 58 12 3 1 9 2
13 1 5 -1 5 4 1 10 -4 7 1 18 11 26 11 7 16 13 12 13 -5 0 -2 6 5 14 7 8 16
12 21 9 4 -2 7 3 7 11 0 9 5 17 10 17 6 1 16 2 22 3 7 0 15 14 18 30 4 21 12
30 29 33 31 4 34 8 36 36 1 18 8 23 38 25 23 2 35 7 31 14 -4 6 0 14 7 19 11
7 11 9 1 9 -14 0 55 71 95 97 12 8 29 13 38 10 8 -4 17 -2 20 4 4 5 10 7 15 4
5 -3 12 10 16 29 6 35 20 42 39 19 8 -10 17 -9 43 4 17 8 32 19 32 24 0 5 5 9
11 9 6 0 22 9 36 20 14 11 20 20 13 20 -7 0 6 18 30 41 23 22 45 37 49 32 8
-10 72 -12 65 -2 -2 4 1 11 7 15 8 4 8 9 1 13 -7 4 -8 12 -1 21 8 13 12 11 29
-10 11 -14 20 -20 20 -15 0 6 4 4 9 -3 6 -10 11 -9 22 4 12 16 12 17 -1 9 -11
-6 -10 -3 3 12 9 11 14 23 10 26 -3 4 3 7 15 7 14 0 22 -6 22 -17 0 -11 3 -14
8 -7 9 14 52 29 71 25 7 -1 10 2 7 8 -4 6 5 13 19 17 14 3 25 11 25 16 0 6 7
8 15 4 8 -3 15 0 15 6 0 6 6 5 17 -3 9 -8 14 -9 10 -3 -8 13 22 24 66 24 15 0
27 4 27 9 0 5 10 7 22 3 14 -3 19 -2 14 6 -4 7 -2 12 3 12 6 0 11 10 11 23 0
18 2 19 10 7 9 -13 10 -13 10 0 0 13 2 13 9 0 6 -8 7 -18 5 -22 -3 -4 0 -8 5
-8 6 0 11 -6 11 -14 0 -8 7 -16 15 -20 8 -3 14 0 12 7 -1 7 4 11 11 10 6 -2
12 3 12 11 0 8 7 16 15 20 9 3 15 0 15 -9 0 -9 9 -13 28 -11 15 1 33 -2 40 -7
8 -7 12 -5 12 5 0 17 29 20 49 4 12 -9 12 -8 3 10 -9 16 -7 22 9 32 11 7 19 8
19 2 0 -16 3 -24 14 -36 12 -13 29 -7 21 7 -4 5 1 9 9 9 10 0 13 6 10 15 -7
17 11 21 22 4 3 -6 17 -8 31 -4 18 4 23 2 17 -6 -4 -8 -3 -9 4 -5 7 4 12 14
12 21 0 9 6 12 15 9 8 -4 15 -9 15 -13z m483 -4166 c-3 -9 -8 -14 -10 -11 -3
3 -2 9 2 15 9 16 15 13 8 -4z m-341 -590 c0 -5 -5 -11 -11 -13 -6 -2 -11 4
-11 13 0 9 5 15 11 13 6 -2 11 -8 11 -13z"/>
<path d="M8310 9685 c0 -18 27 -27 33 -10 3 7 -3 15 -14 18 -11 3 -19 0 -19
-8z"/>
<path d="M8436 9601 c-17 -6 -17 -8 -4 -14 10 -3 19 0 22 9 3 8 4 14 3 13 -1
0 -11 -4 -21 -8z"/>
<path d="M8026 9525 c-3 -8 -1 -15 3 -15 5 0 11 7 15 15 3 8 1 15 -3 15 -5 0
-11 -7 -15 -15z"/>
<path d="M8540 9471 c0 -6 5 -13 10 -16 8 -5 8 -11 0 -20 -8 -9 -8 -15 0 -20
10 -6 11 -5 14 17 0 6 7 13 15 16 9 3 11 0 6 -8 -6 -9 -4 -11 5 -5 10 6 8 12
-9 27 -25 20 -41 23 -41 9z"/>
<path d="M8388 9433 c-10 -3 -18 -8 -18 -13 0 -16 17 -19 35 -6 20 14 10 25
-17 19z"/>
<path d="M8696 9415 c-8 -22 -8 -22 8 -22 7 0 13 6 12 13 -3 22 -13 26 -20 9z"/>
<path d="M8954 9403 c10 -11 37 -12 30 -2 -3 5 -12 9 -21 9 -9 0 -13 -3 -9 -7z"/>
<path d="M8463 9381 c1 -14 5 -17 13 -11 6 6 14 7 17 3 4 -3 7 -2 7 4 0 6 -7
14 -16 17 -22 9 -23 8 -21 -13z"/>
<path d="M8634 9361 c1 -28 16 -57 16 -32 0 7 5 9 13 5 10 -6 10 -4 0 7 -7 7
-13 21 -13 31 0 10 -4 18 -9 18 -5 0 -8 -13 -7 -29z"/>
<path d="M9166 9381 c-3 -5 1 -11 9 -15 9 -3 15 0 15 9 0 16 -16 20 -24 6z"/>
<path d="M8113 9355 c0 -8 3 -13 5 -10 3 3 12 -1 20 -8 13 -9 14 -9 8 1 -4 7
-2 12 4 12 6 0 8 5 5 10 -10 16 -42 12 -42 -5z"/>
<path d="M8873 9333 c4 -6 1 -14 -5 -16 -8 -3 -6 -6 5 -6 10 -1 16 -5 12 -10
-3 -6 3 -9 13 -8 13 1 18 7 14 19 -2 11 -7 16 -10 13 -3 -2 -12 1 -20 8 -11 8
-14 8 -9 0z"/>
<path d="M9217 9313 c3 -7 6 -13 8 -13 2 0 5 6 8 13 3 8 -1 14 -8 14 -7 0 -11
-6 -8 -14z"/>
<path d="M8230 9275 c-11 -13 -11 -18 0 -28 10 -9 11 -9 6 1 -4 6 -3 12 2 12
5 0 9 7 9 15 0 19 -2 19 -17 0z"/>
<path d="M9373 9275 c0 -8 4 -12 9 -9 5 3 6 10 3 15 -9 13 -12 11 -12 -6z"/>
<path d="M8053 9265 c0 -18 23 -20 33 -2 4 6 4 9 -1 5 -4 -4 -13 -3 -20 2 -8
7 -12 5 -12 -5z"/>
<path d="M8433 9247 c-3 -6 -1 -7 5 -3 7 4 12 2 12 -4 0 -6 5 -8 10 -5 6 3 10
10 10 14 0 11 -30 9 -37 -2z"/>
<path d="M9283 9243 c0 -9 4 -10 14 -2 7 6 13 12 13 14 0 1 -6 2 -13 2 -8 0
-14 -6 -14 -14z"/>
<path d="M7973 9226 c0 -15 22 -15 34 0 4 5 4 6 -1 2 -5 -4 -14 -3 -21 2 -8 7
-12 5 -12 -4z"/>
<path d="M8183 9233 c4 -6 4 -18 1 -27 -5 -13 -9 -14 -20 -5 -8 6 -11 16 -8
23 3 6 -2 2 -10 -8 -9 -11 -16 -25 -16 -32 0 -7 -5 -16 -12 -20 -7 -4 -8 -3
-4 4 5 8 2 10 -8 6 -9 -3 -14 -10 -11 -14 3 -4 -17 -8 -45 -7 -30 0 -47 4 -43
10 3 6 1 7 -6 3 -6 -4 -19 -2 -28 6 -9 7 -14 8 -10 2 11 -18 -29 -47 -58 -42
-14 3 -30 -1 -36 -8 -6 -8 -15 -11 -20 -8 -5 3 -9 1 -9 -5 0 -6 -12 -14 -27
-17 -15 -4 -38 -13 -52 -20 -18 -9 -27 -10 -32 -2 -4 6 -11 4 -18 -8 -6 -11
-11 -14 -11 -9 0 6 -9 11 -19 11 -11 0 -17 -4 -15 -8 3 -4 -1 -8 -9 -8 -7 0
-19 -11 -27 -24 -7 -14 -18 -22 -24 -20 -7 3 -24 -6 -38 -19 -14 -13 -34 -22
-44 -20 -37 8 -57 4 -82 -19 -15 -13 -22 -16 -17 -8 6 9 2 7 -7 -3 -10 -11
-18 -25 -18 -33 0 -8 -4 -14 -10 -14 -5 0 -10 -7 -10 -16 0 -10 -6 -14 -15
-10 -8 3 -14 2 -14 -2 4 -22 -3 -33 -16 -28 -8 3 -15 1 -15 -5 0 -15 -26 -39
-34 -32 -3 4 -6 1 -6 -6 0 -7 -4 -10 -9 -7 -10 7 -51 -27 -51 -43 0 -6 -6 -12
-12 -13 -7 0 -17 -2 -23 -2 -30 -4 -52 -41 -34 -56 3 -3 -3 -14 -14 -25 -11
-11 -16 -13 -12 -5 6 12 5 13 -6 3 -7 -7 -21 -13 -30 -13 -12 0 -17 -6 -14
-20 2 -11 0 -20 -6 -20 -5 0 -8 -3 -8 -7 4 -22 -3 -31 -26 -35 -13 -3 -26 -1
-28 5 -1 5 -9 1 -17 -9 -8 -10 -10 -15 -3 -11 12 7 48 -51 38 -61 -3 -3 -5 -1
-5 5 0 5 -7 10 -15 10 -8 0 -15 -6 -15 -13 0 -6 -10 -15 -22 -18 -23 -6 -23
-7 -3 -19 22 -13 26 -30 11 -44 -5 -5 -6 -3 -2 5 5 8 -2 12 -25 12 -26 0 -29
-2 -20 -14 9 -10 9 -16 1 -21 -6 -4 -9 -13 -6 -20 4 -12 -20 -30 -36 -27 -5 1
-9 -4 -9 -11 -1 -6 -2 -16 -4 -22 -1 -5 -3 -15 -3 -22 -1 -7 -12 -17 -23 -24
-15 -8 -19 -8 -15 0 4 6 3 11 -2 11 -5 0 -12 -10 -16 -22 -8 -31 -7 -40 2 -35
4 3 13 -1 20 -9 12 -13 8 -18 -10 -15 -5 0 -8 -6 -8 -14 0 -18 12 -19 27 -4 9
9 11 8 9 -4 -2 -19 -55 -67 -73 -67 -7 0 -13 -5 -13 -11 0 -5 6 -7 13 -3 8 6
8 3 -1 -9 -8 -9 -12 -22 -9 -29 2 -7 -2 -20 -10 -29 -8 -9 -14 -27 -14 -40 1
-23 0 -71 -2 -97 0 -7 -11 -15 -24 -18 -29 -8 -22 -20 15 -27 21 -4 28 -12 30
-32 1 -18 -2 -25 -11 -22 -6 2 -11 10 -9 16 4 21 -6 11 -22 -19 -8 -17 -10
-28 -5 -25 13 9 11 -9 -3 -24 -10 -11 -10 -14 -1 -18 10 -3 9 -9 -1 -26 -16
-25 -13 -56 5 -68 10 -6 10 -13 1 -33 -6 -14 -8 -26 -3 -26 4 0 8 -7 8 -15 0
-8 -6 -15 -13 -15 -23 0 -2 -43 27 -53 46 -18 44 -55 -3 -48 -4 0 -5 -6 -2
-14 4 -8 2 -15 -3 -15 -5 0 -10 -6 -10 -12 0 -7 -4 -22 -8 -33 -5 -14 -4 -16
3 -7 7 11 13 10 27 -4 12 -12 14 -19 6 -22 -8 -3 -6 -9 6 -19 10 -8 12 -12 6
-8 -7 3 -13 1 -13 -5 0 -6 -4 -9 -8 -6 -4 2 -8 -6 -8 -19 0 -14 2 -23 4 -20 2
2 10 -2 17 -8 10 -9 10 -15 1 -26 -8 -11 -8 -15 2 -18 18 -7 15 -23 -5 -23
-16 -1 -16 -2 2 -16 11 -8 19 -20 17 -25 -4 -16 17 -10 28 9 10 14 10 13 5 -8
-14 -52 -11 -65 14 -65 15 0 25 -6 27 -17 1 -10 -2 -18 -7 -18 -4 0 -5 -7 -2
-17 4 -9 2 -14 -3 -11 -5 3 -17 -3 -27 -12 -18 -18 -18 -19 2 -30 15 -8 21 -8
21 0 0 6 5 8 10 5 6 -4 7 -12 3 -18 -5 -8 -2 -8 9 0 22 19 30 3 13 -24 -15
-23 -11 -28 21 -24 7 1 14 -6 18 -14 4 -11 2 -14 -7 -9 -7 5 -6 1 2 -10 13
-15 13 -19 0 -26 -11 -8 -11 -12 6 -24 18 -13 21 -13 31 0 10 13 14 13 28 -2
12 -12 14 -20 6 -29 -13 -16 -3 -24 38 -27 26 -2 29 -5 21 -20 -8 -15 -26 -22
-50 -20 -3 1 -6 -6 -6 -14 0 -7 4 -14 9 -14 4 0 8 -8 8 -18 0 -23 30 -25 48
-3 9 10 11 11 6 2 -5 -11 -3 -13 10 -8 10 4 15 3 11 -3 -23 -37 -12 -80 20
-80 6 0 4 4 -4 9 -8 5 -9 11 -3 15 5 3 12 -1 16 -9 3 -8 1 -17 -4 -20 -13 -8
4 -50 21 -51 8 -1 19 -2 26 -3 11 -1 29 -38 25 -53 -1 -5 5 -8 14 -8 8 0 12
-4 9 -10 -3 -5 -1 -10 4 -10 6 0 11 4 11 8 0 5 7 9 16 9 11 0 14 -7 9 -24 -6
-25 7 -44 37 -56 13 -4 16 -2 12 11 -5 16 -4 16 9 0 8 -10 16 -15 19 -13 3 3
11 -1 18 -10 8 -10 9 -15 1 -15 -6 0 -11 -5 -11 -11 0 -8 4 -8 15 1 22 19 41
7 21 -13 -15 -15 -16 -19 -3 -32 18 -18 68 -15 85 5 10 11 12 11 6 1 -4 -8 -8
-24 -10 -37 -2 -18 3 -23 19 -22 38 1 48 -2 42 -12 -3 -6 1 -7 10 -4 11 5 14
2 9 -10 -6 -17 11 -23 20 -7 3 5 17 9 31 9 14 0 22 -5 18 -11 -3 -5 5 -19 18
-29 13 -11 18 -16 10 -12 -10 5 -12 3 -7 -5 6 -10 12 -9 24 1 10 7 28 19 42
27 22 13 24 12 13 -1 -7 -8 -10 -18 -6 -21 3 -4 1 -7 -6 -7 -8 0 -7 -9 4 -30
15 -30 16 -30 45 -15 28 14 30 14 27 -2 -1 -10 -7 -24 -11 -32 -7 -11 -4 -13
12 -9 12 4 20 2 16 -3 -6 -11 7 -12 21 -1 13 9 18 35 5 27 -5 -3 -10 0 -10 7
0 8 13 13 34 13 19 0 32 -3 29 -7 -2 -5 1 -8 6 -8 6 0 11 -8 11 -19 0 -24 19
-38 48 -35 13 1 21 -3 19 -10 -3 -7 9 -12 29 -13 24 -1 34 2 34 13 0 8 5 12
10 9 6 -3 16 -3 23 2 18 11 37 12 37 2 0 -5 -6 -9 -12 -9 -7 0 -5 -5 5 -11 9
-6 15 -14 13 -18 -3 -4 1 -8 9 -8 8 0 15 4 15 9 0 4 5 8 12 8 6 0 20 7 30 16
16 15 18 15 24 1 3 -8 7 -22 8 -31 3 -19 16 -34 16 -17 0 7 4 10 9 6 5 -3 18
13 27 36 l19 41 17 -22 c10 -12 18 -18 19 -14 0 5 5 -2 11 -16 6 -14 10 -29 9
-33 -1 -5 10 0 25 12 28 22 64 28 64 10 0 -5 -4 -7 -10 -4 -5 3 -10 2 -10 -3
0 -16 13 -22 26 -11 7 6 27 11 44 11 19 1 37 9 48 23 19 24 52 29 52 8 0 -8
-4 -11 -10 -8 -5 3 -7 0 -4 -8 6 -18 52 -16 65 3 8 13 10 13 19 0 5 -8 10 -13
11 -10 6 36 9 44 18 53 7 7 16 5 30 -7 16 -15 19 -15 24 -2 4 9 13 13 22 10 8
-3 12 -11 8 -17 -3 -6 4 -3 16 6 23 15 56 13 46 -3 -3 -5 4 -6 15 -3 11 3 20
10 20 15 0 5 4 7 9 3 6 -3 15 4 22 16 8 16 13 18 19 9 6 -10 15 -6 34 15 14
15 39 29 54 31 15 1 29 2 31 3 2 1 -2 7 -8 15 -13 15 1 32 18 22 5 -3 11 1 15
9 3 8 12 12 20 9 8 -3 12 -12 9 -20 -8 -20 19 -14 35 9 8 10 19 16 25 14 7 -2
18 3 26 10 8 8 17 10 20 5 8 -12 41 -11 41 1 0 5 -6 7 -12 4 -8 -3 -14 5 -15
21 -1 18 1 21 8 11 8 -12 12 -11 24 5 8 11 15 17 15 13 0 -5 6 -2 14 5 8 7 13
15 13 18 -1 3 10 18 24 32 15 15 29 32 31 38 2 6 13 12 26 13 14 1 21 6 18 14
-3 7 -2 12 2 12 22 -4 33 3 28 16 -6 16 35 32 53 20 6 -3 11 -3 12 2 1 4 2 20
3 36 3 27 16 51 16 29 0 -6 7 -9 15 -6 8 4 15 12 15 20 0 8 5 14 11 14 6 0 9
9 6 19 -3 14 0 19 12 16 24 -4 52 14 33 22 -9 3 -3 14 20 35 18 16 33 35 33
41 1 7 6 11 13 9 7 -1 15 5 18 13 3 8 10 12 15 9 5 -3 6 2 3 10 -3 9 -1 16 5
16 6 0 8 7 5 15 -9 23 5 38 24 23 12 -10 14 -10 8 0 -4 6 -3 12 2 12 6 0 9 8
8 18 0 9 5 16 12 14 12 -2 16 9 12 42 -1 10 2 16 7 13 5 -3 7 8 5 25 -4 23 -2
29 8 23 9 -6 11 -4 6 4 -5 7 0 21 10 32 9 10 13 19 9 19 -5 0 1 9 13 20 12 12
22 30 22 40 0 11 5 20 10 20 6 0 10 9 10 20 0 11 -4 20 -10 20 -5 0 -10 6 -10
13 0 8 7 14 15 14 8 0 15 -6 15 -14 0 -9 5 -8 20 4 15 13 17 20 8 30 -8 10 -8
20 -1 36 7 15 7 29 2 39 -5 10 -5 19 0 22 4 3 7 17 6 31 -2 14 1 25 6 25 6 0
7 6 3 13 -6 9 -4 9 8 -1 22 -18 31 7 12 33 -8 10 -14 28 -14 40 0 12 -5 26
-12 33 -9 9 -7 12 11 12 12 0 29 7 37 15 9 8 11 15 5 15 -6 0 -11 7 -11 15 0
8 5 15 10 15 6 0 10 7 10 15 0 8 5 15 10 15 14 0 13 57 -1 62 -11 4 -20 98 -9
98 3 0 5 11 5 25 0 14 -5 25 -11 25 -7 0 -14 11 -16 25 -4 18 -1 25 11 26 9 0
11 3 4 5 -7 3 -17 21 -23 40 -6 19 -17 34 -25 34 -7 0 -16 7 -19 16 -9 24 -7
34 5 32 10 -3 18 16 21 49 1 6 8 9 17 6 13 -4 13 -2 -1 10 -10 8 -15 17 -11
20 3 4 -2 7 -12 7 -10 0 -16 3 -12 6 3 4 0 13 -8 21 -11 10 -12 20 -5 39 7 17
7 23 0 19 -6 -3 -10 1 -10 9 0 21 21 31 31 15 5 -8 9 -9 9 -3 0 15 -35 54 -49
54 -7 0 -10 4 -7 9 4 5 0 12 -6 14 -10 4 -9 6 1 6 11 1 10 6 -4 21 -10 11 -15
20 -11 20 7 0 -3 14 -36 50 -13 15 -15 26 -7 52 5 18 9 34 9 35 0 4 -26 -3
-37 -10 -12 -8 -17 -2 -14 16 0 4 -8 7 -20 7 -11 0 -18 4 -15 9 4 5 0 12 -6
14 -10 4 -9 6 1 6 11 1 11 5 -3 20 -15 16 -15 19 -1 24 8 4 15 2 15 -3 0 -5 8
-6 17 -3 13 5 14 8 3 11 -20 7 -60 49 -53 56 4 3 1 6 -5 6 -6 0 -14 9 -17 20
-3 11 -13 20 -21 20 -8 0 -13 4 -10 9 3 5 -1 12 -10 15 -8 3 -12 11 -8 17 4 7
3 9 -3 6 -5 -3 -16 3 -23 14 -8 10 -21 19 -29 19 -8 0 -12 3 -8 6 3 3 -8 19
-23 36 -25 26 -28 34 -18 52 10 19 10 20 -6 7 -14 -12 -18 -12 -30 4 -8 11
-18 15 -26 10 -8 -5 -11 -4 -7 2 8 12 -27 46 -36 36 -4 -3 -7 1 -7 10 0 10 -7
15 -18 12 -19 -3 -23 6 -23 56 0 16 -6 26 -15 26 -7 0 -14 -3 -14 -7 0 -3 -11
-6 -24 -6 -14 0 -23 3 -21 6 5 8 -12 35 -22 36 -30 3 -63 26 -63 43 0 22 -32
45 -45 33 -5 -4 -5 -1 -1 6 4 6 2 12 -4 12 -6 0 -8 6 -5 13 3 6 0 4 -7 -5 -11
-15 -13 -15 -26 0 -9 12 -11 12 -6 2 6 -12 4 -13 -6 -3 -10 9 -17 10 -27 2
-10 -9 -13 -8 -13 5 0 9 -4 16 -10 16 -5 0 -10 6 -10 14 0 8 -5 18 -12 22 -7
5 -8 3 -3 -7 8 -12 6 -12 -8 0 -13 10 -17 10 -17 1 0 -9 -4 -9 -17 1 -14 12
-16 12 -9 -1 4 -8 0 -6 -8 4 -9 11 -16 16 -16 12 0 -5 -6 -4 -13 3 -10 8 -17
7 -25 -1 -9 -9 -12 -9 -12 1 0 7 -4 10 -9 6 -5 -3 -13 4 -16 16 -5 14 -13 19
-26 16 -10 -3 -17 0 -16 5 1 6 -4 13 -12 16 -9 3 -11 0 -6 -8 5 -9 4 -11 -3
-6 -7 4 -12 14 -12 22 0 8 -5 14 -11 14 -5 0 -7 5 -3 11 3 6 -5 3 -20 -6 -14
-9 -23 -22 -20 -27 4 -7 0 -7 -12 0 -11 5 -25 7 -33 4 -10 -3 -12 0 -8 11 4
11 0 13 -14 10 -11 -3 -19 0 -19 8 0 7 -3 9 -6 6 -4 -3 -15 -2 -25 3 -13 8
-21 6 -29 -7 -8 -13 -13 -14 -16 -5 -3 6 -10 10 -15 6 -5 -3 -9 -1 -9 4 0 5
-11 14 -25 20 -21 10 -27 9 -31 -3 -5 -11 -11 -12 -25 -4 -14 7 -21 6 -25 -4
-5 -15 -39 -16 -51 -2 -5 4 -1 5 7 1 20 -10 -20 23 -44 36 -10 5 -16 6 -13 1
3 -5 -3 -17 -14 -26 -18 -16 -24 -14 -20 7 1 5 -10 1 -24 -8 -29 -19 -49 -12
-42 15 3 10 -2 24 -11 31 -10 8 -13 9 -9 1z m-204 -99 c-6 -7 -15 -11 -21 -8
-5 3 -4 12 3 20 6 7 15 11 21 8 5 -3 4 -12 -3 -20z m1067 -493 c-7 -11 77 -10
91 1 9 7 18 5 28 -6 9 -9 14 -16 10 -16 -4 0 0 -7 9 -15 8 -8 20 -15 26 -15 6
0 22 -12 37 -26 14 -14 32 -23 40 -20 10 4 13 0 11 -14 -2 -10 2 -20 7 -21 14
-3 30 -20 43 -46 15 -28 15 -36 0 -27 -9 6 -9 3 0 -9 8 -9 19 -15 24 -14 6 1
13 -4 15 -10 3 -7 -2 -13 -11 -13 -9 0 -13 -6 -10 -14 3 -8 0 -17 -5 -21 -6
-3 -9 -11 -6 -16 4 -5 2 -9 -3 -9 -6 0 -8 -9 -5 -20 6 -21 -14 -53 -27 -45
-20 13 -18 -16 2 -36 20 -19 20 -21 4 -15 -16 5 -17 4 -6 -9 7 -8 9 -16 4 -17
-5 0 -13 -2 -19 -3 -5 -2 -16 -3 -22 -4 -7 0 -13 -8 -13 -16 0 -12 -4 -13 -18
-6 -19 10 -57 -10 -44 -24 4 -4 -5 -6 -20 -3 -17 3 -25 1 -21 -5 4 -6 0 -8
-10 -4 -9 3 -18 1 -21 -6 -2 -7 -4 -2 -2 10 1 12 5 25 9 29 6 7 -16 34 -29 34
-4 0 -4 -3 -1 -7 4 -3 2 -13 -5 -20 -10 -12 -13 -11 -23 7 -11 21 -11 21 -24
-4 -19 -36 -39 -39 -65 -13 -18 18 -21 28 -14 41 8 15 7 17 -8 12 -30 -9 -76
8 -93 34 -10 14 -11 21 -3 16 6 -4 12 -5 12 -1 0 3 -12 10 -26 16 -26 9 -26
10 -8 30 17 19 17 20 -3 25 -22 6 -37 40 -22 50 5 3 7 10 4 15 -4 5 0 9 7 9
11 0 11 2 0 9 -23 14 -18 72 8 93 26 21 47 23 52 6 3 -8 7 -6 11 5 4 10 2 16
-5 14 -14 -2 -19 71 -6 79 4 3 8 0 8 -6 0 -7 13 -10 33 -8 25 2 33 8 35 26 3
19 6 21 18 11 12 -10 15 -10 12 2 -2 8 3 13 10 12 6 -2 12 2 12 8 0 5 5 7 10
4 6 -4 8 -10 6 -14z m-2263 -645 c4 -10 1 -13 -8 -9 -8 3 -12 9 -9 14 7 12 11
11 17 -5z"/>
<path d="M8999 8573 c-13 -16 -12 -17 4 -4 9 7 17 15 17 17 0 8 -8 3 -21 -13z"/>
<path d="M8935 8501 c-3 -5 -2 -12 3 -15 5 -3 9 1 9 9 0 17 -3 19 -12 6z"/>
<path d="M9214 8481 c1 -14 7 -26 14 -26 6 0 12 3 12 8 0 4 0 15 0 25 0 10 -6
19 -13 19 -9 0 -14 -11 -13 -26z"/>
<path d="M9050 8468 c0 -4 4 -8 9 -8 6 0 12 4 15 8 3 5 -1 9 -9 9 -8 0 -15 -4
-15 -9z"/>
<path d="M8957 8383 c-12 -11 -8 -20 11 -25 12 -4 18 1 18 13 0 19 -16 25 -29
12z"/>
<path d="M8896 8342 c-2 -4 -1 -14 5 -22 7 -12 9 -10 9 8 0 23 -5 28 -14 14z"/>
<path d="M8983 8236 c-9 -11 -8 -15 6 -19 14 -3 17 0 14 14 -6 22 -5 22 -20 5z"/>
<path d="M8630 9225 c-11 -13 -10 -14 4 -9 9 3 16 10 16 15 0 13 -6 11 -20 -6z"/>
<path d="M8956 9211 c-3 -5 1 -11 9 -14 9 -4 12 -1 8 9 -6 16 -10 17 -17 5z"/>
<path d="M9460 9196 c-12 -18 -11 -19 2 -9 8 7 17 10 20 7 3 -2 8 1 11 9 8 22
-19 16 -33 -7z"/>
<path d="M8937 9130 c-3 -12 0 -20 8 -20 8 0 11 8 8 20 -3 11 -7 20 -8 20 -1
0 -5 -9 -8 -20z"/>
<path d="M9291 9101 c-8 -5 -10 -14 -6 -21 6 -9 10 -8 17 4 12 21 7 28 -11 17z"/>
<path d="M8965 9080 c-3 -5 -1 -10 4 -10 6 0 11 5 11 10 0 6 -2 10 -4 10 -3 0
-8 -4 -11 -10z"/>
<path d="M9170 9060 c0 -5 5 -10 10 -10 6 0 10 5 10 10 0 6 -4 10 -10 10 -5 0
-10 -4 -10 -10z"/>
<path d="M6820 8996 c0 -17 16 -30 23 -19 3 5 -1 14 -9 21 -12 10 -14 10 -14
-2z"/>
<path d="M9385 8982 c-18 -13 -15 -31 5 -29 13 1 16 5 10 13 -6 6 -7 14 -3 17
9 9 0 9 -12 -1z"/>
<path d="M6904 8920 c0 -13 4 -16 10 -10 7 7 7 13 0 20 -6 6 -10 3 -10 -10z"/>
<path d="M6710 8926 c0 -9 30 -14 35 -6 4 6 -3 10 -14 10 -12 0 -21 -2 -21 -4z"/>
<path d="M6790 8920 c0 -5 5 -10 10 -10 6 0 10 5 10 10 0 6 -4 10 -10 10 -5 0
-10 -4 -10 -10z"/>
<path d="M9456 8887 c3 -10 9 -15 12 -12 3 3 0 11 -7 18 -10 9 -11 8 -5 -6z"/>
<path d="M6855 8859 c-4 -6 -5 -12 -2 -15 2 -3 7 2 10 11 7 17 1 20 -8 4z"/>
<path d="M6902 8814 c10 -10 20 -16 22 -13 3 3 -5 11 -17 18 -21 13 -21 12 -5
-5z"/>
<path d="M9390 8820 c0 -5 5 -10 11 -10 5 0 7 5 4 10 -3 6 -8 10 -11 10 -2 0
-4 -4 -4 -10z"/>
<path d="M6983 8723 c0 -9 4 -10 14 -2 7 6 13 12 13 14 0 1 -6 2 -13 2 -8 0
-14 -6 -14 -14z"/>
<path d="M9640 8609 c0 -5 -4 -7 -10 -4 -5 3 -10 1 -10 -4 0 -6 7 -11 15 -11
8 0 15 7 15 15 0 8 -2 15 -5 15 -3 0 -5 -5 -5 -11z"/>
<path d="M6463 8454 c1 -22 24 -30 24 -8 0 7 -4 11 -8 8 -4 -2 -9 2 -12 8 -3
7 -5 4 -4 -8z"/>
<path d="M9885 8041 c-3 -5 -1 -12 5 -16 6 -4 8 -11 5 -16 -3 -5 1 -6 11 -2
15 5 15 7 0 15 -9 5 -14 13 -11 19 4 5 4 9 1 9 -3 0 -7 -4 -11 -9z"/>
<path d="M6256 7962 c-4 -7 -4 -12 1 -12 4 0 1 -5 -7 -10 -13 -8 -12 -10 3
-10 12 0 16 -5 11 -12 -5 -10 -4 -10 5 -2 8 7 9 19 3 34 -6 15 -11 19 -16 12z"/>
<path d="M6333 7880 c3 -16 21 -14 25 2 3 10 2 10 -6 -1 -7 -9 -11 -10 -15 -2
-4 7 -5 8 -4 1z"/>
<path d="M6250 7800 c0 -5 5 -10 11 -10 5 0 7 5 4 10 -3 6 -8 10 -11 10 -2 0
-4 -4 -4 -10z"/>
<path d="M6297 7791 c-4 -17 -2 -18 14 -8 22 14 25 27 5 27 -7 0 -16 -9 -19
-19z"/>
<path d="M6507 7721 c2 -10 10 -18 18 -18 16 0 9 23 -10 30 -8 4 -11 -1 -8
-12z"/>
<path d="M6553 7715 c0 -9 4 -14 9 -13 5 2 10 8 10 13 0 5 -5 11 -10 13 -5 1
-9 -4 -9 -13z"/>
<path d="M9985 7462 c-6 -4 -11 -12 -10 -19 0 -14 15 -30 16 -17 0 5 2 17 4
27 4 19 4 19 -10 9z"/>
<path d="M9903 7348 c-1 -11 1 -16 5 -12 4 5 11 12 15 15 5 3 2 9 -5 12 -9 3
-14 -3 -15 -15z"/>
<path d="M6259 7292 c9 -7 10 -11 2 -15 -7 -4 -8 -5 0 -4 15 3 13 21 -3 25
-10 3 -10 2 1 -6z"/>
<path d="M9887 7236 c-7 -17 18 -40 33 -31 5 3 10 15 10 26 0 23 -35 27 -43 5z"/>
<path d="M10125 7210 c22 -24 22 -24 22 -5 0 8 -4 12 -9 9 -4 -3 -8 0 -8 5 0
6 -5 11 -12 11 -6 0 -3 -9 7 -20z"/>
<path d="M10060 7210 c-11 -7 -11 -10 -2 -10 7 0 10 -4 7 -10 -4 -6 1 -7 11
-3 11 4 13 8 6 11 -7 2 -10 8 -6 13 7 11 3 11 -16 -1z"/>
<path d="M6336 6962 c-3 -5 1 -9 9 -9 8 0 12 4 9 9 -3 4 -7 8 -9 8 -2 0 -6 -4
-9 -8z"/>
<path d="M6860 6590 c-12 -8 -10 -10 8 -10 13 0 20 4 17 10 -7 12 -6 12 -25 0z"/>
<path d="M6690 6414 c0 -8 5 -12 10 -9 6 4 8 11 5 16 -9 14 -15 11 -15 -7z"/>
<path d="M6771 6372 c-8 -15 -7 -21 3 -25 17 -7 27 15 16 33 -6 10 -11 8 -19
-8z"/>
<path d="M7101 6356 c-10 -11 -9 -14 1 -12 14 2 23 15 15 22 -2 2 -10 -2 -16
-10z"/>
<path d="M6776 6187 c-4 -9 -8 -24 -10 -31 -3 -10 0 -13 9 -10 18 7 25 28 15
45 -7 11 -10 10 -14 -4z"/>
<path d="M9079 6114 c-9 -12 -10 -15 -1 -10 7 4 12 2 12 -5 0 -10 3 -10 12 -1
8 8 9 15 2 22 -8 8 -15 6 -25 -6z"/>
<path d="M8860 6011 c0 -7 -5 -9 -12 -5 -7 5 -8 3 -3 -5 5 -9 10 -10 18 -2 6
6 8 14 4 18 -4 3 -7 1 -7 -6z"/>
<path d="M8914 5986 c1 -8 5 -18 8 -22 4 -3 5 1 4 10 -1 8 -5 18 -8 22 -4 3
-5 -1 -4 -10z"/>
<path d="M8830 5940 c0 -19 3 -21 12 -12 9 9 9 15 0 24 -9 9 -12 7 -12 -12z"/>
<path d="M8644 5898 c-4 -7 -4 -10 1 -6 4 4 14 3 22 -4 11 -8 12 -7 7 6 -7 19
-20 21 -30 4z"/>
<path d="M8934 5880 c0 -13 4 -16 10 -10 7 7 7 13 0 20 -6 6 -10 3 -10 -10z"/>
<path d="M8410 5879 c0 -15 18 -19 23 -6 3 8 -1 14 -9 14 -8 0 -14 -4 -14 -8z"/>
<path d="M7763 5862 c-9 -6 -7 -11 6 -19 15 -10 19 -9 17 2 -3 20 -10 25 -23
17z"/>
<path d="M7936 5855 c-3 -9 0 -15 9 -15 16 0 20 16 6 24 -5 3 -11 -1 -15 -9z"/>
<path d="M7436 5852 c-3 -5 1 -9 9 -9 8 0 12 4 9 9 -3 4 -7 8 -9 8 -2 0 -6 -4
-9 -8z"/>
<path d="M9346 5848 c3 -5 10 -6 15 -3 13 9 11 12 -6 12 -8 0 -12 -4 -9 -9z"/>
<path d="M8015 5842 c-11 -11 -4 -20 12 -18 22 3 29 23 8 23 -8 0 -17 -3 -20
-5z"/>
<path d="M8510 5839 c0 -5 5 -7 10 -4 6 3 10 8 10 11 0 2 -4 4 -10 4 -5 0 -10
-5 -10 -11z"/>
<path d="M9183 5815 c0 -8 4 -15 9 -15 4 0 8 4 8 9 0 6 -4 12 -8 15 -5 3 -9
-1 -9 -9z"/>
<path d="M7403 5804 c-14 -15 -3 -27 14 -16 7 4 9 13 5 19 -5 8 -11 7 -19 -3z"/>
<path d="M8676 5811 c-3 -5 1 -14 8 -20 12 -10 13 -8 9 8 -6 23 -9 25 -17 12z"/>
<path d="M8270 5770 c-12 -7 -12 -12 -2 -22 6 -6 12 -10 13 -7 0 2 2 12 4 22
4 20 4 19 -15 7z"/>
<path d="M9108 5773 c6 -2 9 -10 6 -15 -4 -7 -2 -8 5 -4 13 9 5 26 -12 25 -9
0 -8 -2 1 -6z"/>
<path d="M7766 5725 c4 -8 13 -15 21 -15 13 0 13 3 3 15 -7 8 -16 15 -21 15
-5 0 -6 -7 -3 -15z"/>
<path d="M8427 5725 c3 -8 9 -12 14 -9 12 7 11 11 -5 17 -10 4 -13 1 -9 -8z"/>
<path d="M7448 5693 c5 -21 7 -23 10 -9 2 10 0 22 -6 28 -6 6 -7 0 -4 -19z"/>
<path d="M8174 5667 c3 -12 5 -23 5 -25 1 -1 7 3 14 10 19 17 17 34 -5 35 -13
1 -17 -4 -14 -20z"/>
<path d="M7510 5670 c0 -5 5 -10 10 -10 6 0 10 5 10 10 0 6 -4 10 -10 10 -5 0
-10 -4 -10 -10z"/>
<path d="M8003 5655 c0 -22 22 -25 35 -4 11 17 9 19 -11 19 -14 0 -24 -6 -24
-15z"/>
<path d="M9007 5651 c4 -17 8 -18 23 -8 22 13 17 27 -10 27 -13 0 -17 -5 -13
-19z"/>
<path d="M7686 5618 c3 -5 10 -6 15 -3 13 9 11 12 -6 12 -8 0 -12 -4 -9 -9z"/>
<path d="M8120 5586 c0 -2 8 -10 18 -17 15 -13 16 -12 3 4 -13 16 -21 21 -21
13z"/>
<path d="M7984 5550 c0 -11 1 -20 3 -20 1 0 7 9 13 20 8 15 8 20 -3 20 -7 0
-13 -9 -13 -20z"/>
<path d="M8426 5553 c-6 -14 -5 -15 5 -6 7 7 10 15 7 18 -3 3 -9 -2 -12 -12z"/>
<path d="M8593 5545 c0 -8 4 -12 9 -9 5 3 6 10 3 15 -9 13 -12 11 -12 -6z"/>
<path d="M8090 5541 c0 -5 5 -13 10 -16 6 -3 10 -2 10 4 0 5 -4 13 -10 16 -5
3 -10 2 -10 -4z"/>
<path d="M8006 5512 c-3 -5 1 -9 9 -9 8 0 12 4 9 9 -3 4 -7 8 -9 8 -2 0 -6 -4
-9 -8z"/>
<path d="M8290 10285 c0 -8 5 -15 10 -15 6 0 10 7 10 15 0 8 -4 15 -10 15 -5
0 -10 -7 -10 -15z"/>
<path d="M8694 10281 c0 -10 5 -18 11 -18 7 0 12 6 12 13 0 7 -5 15 -12 17 -6
3 -11 -3 -11 -12z"/>
<path d="M9022 10291 c2 -7 7 -12 11 -12 12 1 9 15 -3 20 -7 2 -11 -2 -8 -8z"/>
<path d="M8035 10270 c3 -5 8 -10 11 -10 2 0 4 5 4 10 0 6 -5 10 -11 10 -5 0
-7 -4 -4 -10z"/>
<path d="M3355 10220 c-3 -5 1 -10 9 -10 8 0 18 5 21 10 3 6 -1 10 -9 10 -8 0
-18 -4 -21 -10z"/>
<path d="M9112 10211 c-11 -6 -10 -10 0 -19 11 -8 14 -7 15 9 2 22 2 21 -15
10z"/>
<path d="M9285 10180 c-3 -6 1 -7 9 -4 18 7 21 14 7 14 -6 0 -13 -4 -16 -10z"/>
<path d="M9447 10171 c-6 -24 19 -36 27 -14 7 16 0 33 -13 33 -5 0 -11 -9 -14
-19z"/>
<path d="M7317 10134 c-4 -4 -7 -14 -7 -23 0 -11 3 -12 11 -4 6 6 10 16 7 23
-2 6 -7 8 -11 4z"/>
<path d="M9578 10113 c6 -2 10 -9 6 -14 -3 -5 -1 -9 5 -9 17 0 21 18 5 24 -9
3 -19 6 -22 5 -4 0 -1 -3 6 -6z"/>
<path d="M7265 10070 c3 -5 11 -10 16 -10 6 0 7 5 4 10 -3 6 -11 10 -16 10 -6
0 -7 -4 -4 -10z"/>
<path d="M9426 10072 c-2 -4 0 -14 5 -22 8 -12 12 -12 16 -2 2 6 9 10 14 7 5
-4 6 1 3 9 -6 17 -29 21 -38 8z"/>
<path d="M6976 10007 c3 -10 9 -15 12 -12 3 3 0 11 -7 18 -10 9 -11 8 -5 -6z"/>
<path d="M9506 10012 c-3 -5 1 -9 9 -9 8 0 12 4 9 9 -3 4 -7 8 -9 8 -2 0 -6
-4 -9 -8z"/>
<path d="M6646 9963 c-6 -14 -5 -15 5 -6 7 7 10 15 7 18 -3 3 -9 -2 -12 -12z"/>
<path d="M9715 9971 c-3 -5 -2 -12 3 -15 5 -3 9 1 9 9 0 17 -3 19 -12 6z"/>
<path d="M9777 9903 c-6 -10 19 -34 26 -26 8 7 -3 33 -13 33 -5 0 -11 -3 -13
-7z"/>
<path d="M6800 9860 c-15 -10 -15 -10 25 -10 3 0 5 3 6 7 1 12 -15 13 -31 3z"/>
<path d="M6660 9841 c0 -7 -5 -9 -12 -5 -7 5 -8 3 -3 -5 5 -9 10 -10 18 -2 6
6 8 14 4 18 -4 3 -7 1 -7 -6z"/>
<path d="M6365 9821 c-3 -5 -2 -12 3 -15 5 -3 9 1 9 9 0 17 -3 19 -12 6z"/>
<path d="M6474 9795 c3 -23 12 -26 13 -5 1 11 -2 20 -7 20 -4 0 -7 -7 -6 -15z"/>
<path d="M6412 9740 c0 -14 2 -19 5 -12 2 6 2 18 0 25 -3 6 -5 1 -5 -13z"/>
<path d="M6556 9724 c-8 -21 -8 -21 11 -28 10 -4 14 -4 10 0 -4 4 -2 13 3 19
7 9 6 14 -4 18 -8 3 -17 -1 -20 -9z"/>
<path d="M6316 9661 c-3 -5 1 -11 9 -15 9 -3 15 0 15 9 0 16 -16 20 -24 6z"/>
<path d="M6196 9642 c-3 -5 1 -9 9 -9 8 0 12 4 9 9 -3 4 -7 8 -9 8 -2 0 -6 -4
-9 -8z"/>
<path d="M6404 9570 c0 -10 6 -16 13 -13 7 3 13 9 13 13 0 4 -6 10 -13 13 -7
3 -13 -3 -13 -13z"/>
<path d="M10278 9533 c7 -3 16 -2 19 1 4 3 -2 6 -13 5 -11 0 -14 -3 -6 -6z"/>
<path d="M6190 9484 c0 -15 33 -11 38 4 2 6 -6 10 -17 9 -12 -1 -21 -7 -21
-13z"/>
<path d="M6317 9487 c-3 -8 1 -14 9 -14 8 0 14 6 14 14 0 7 -4 13 -9 13 -5 0
-11 -6 -14 -13z"/>
<path d="M10466 9401 c-3 -5 0 -14 7 -19 10 -8 13 -6 14 9 2 19 -11 26 -21 10z"/>
<path d="M6085 9240 c-4 -6 -12 -8 -18 -4 -7 3 -3 -1 7 -10 10 -8 24 -12 29
-9 8 5 7 8 -1 11 -7 2 -10 8 -6 13 3 5 3 9 0 9 -3 0 -8 -5 -11 -10z"/>
<path d="M5990 9200 c0 -5 5 -10 11 -10 5 0 7 5 4 10 -3 6 -8 10 -11 10 -2 0
-4 -4 -4 -10z"/>
<path d="M10620 9120 c0 -5 5 -10 11 -10 5 0 7 5 4 10 -3 6 -8 10 -11 10 -2 0
-4 -4 -4 -10z"/>
<path d="M10614 9055 c4 -24 14 -28 24 -8 9 15 7 19 -8 20 -10 1 -17 -4 -16
-12z"/>
<path d="M3358 8833 c6 -2 9 -10 6 -15 -4 -7 -2 -8 5 -4 13 9 5 26 -12 25 -9
0 -8 -2 1 -6z"/>
<path d="M10860 8808 c0 -9 5 -20 10 -23 13 -8 13 5 0 25 -8 13 -10 13 -10 -2z"/>
<path d="M5757 8763 c-3 -5 -2 -15 2 -22 7 -10 10 -10 16 -1 4 6 3 16 -3 22
-5 5 -12 6 -15 1z"/>
<path d="M10774 8735 c-8 -21 1 -29 19 -18 13 7 13 10 1 21 -12 11 -15 10 -20
-3z"/>
<path d="M10862 8706 c7 -8 16 -12 21 -9 11 7 -2 23 -19 23 -12 0 -12 -2 -2
-14z"/>
<path d="M5687 8685 c3 -8 9 -12 14 -9 12 7 11 11 -5 17 -10 4 -13 1 -9 -8z"/>
<path d="M3340 8670 c-12 -8 -12 -10 3 -16 9 -3 25 -3 34 0 15 6 15 8 3 16 -8
6 -17 10 -20 10 -3 0 -12 -4 -20 -10z"/>
<path d="M10876 8534 c-8 -21 -8 -21 9 -21 8 0 12 4 9 9 -3 4 0 8 6 8 6 0 8 5
5 10 -9 15 -22 12 -29 -6z"/>
<path d="M3390 8450 c-9 -6 -10 -10 -3 -10 6 0 15 5 18 10 8 12 4 12 -15 0z"/>
<path d="M5590 8443 c0 -12 3 -14 11 -6 8 8 16 6 30 -8 11 -11 25 -16 31 -13
9 6 9 9 0 12 -7 2 -9 9 -6 14 4 6 2 8 -4 4 -6 -3 -13 -2 -17 4 -10 17 -45 12
-45 -7z"/>
<path d="M3458 8393 c-10 -2 -18 -9 -18 -14 0 -6 8 -5 20 1 11 6 20 13 20 15
0 3 -1 4 -2 4 -2 -1 -11 -3 -20 -6z"/>
<path d="M10933 8392 c-7 -4 -9 -13 -4 -21 6 -9 10 -7 14 8 3 12 4 21 4 21 -1
0 -7 -4 -14 -8z"/>
<path d="M3395 8321 c-9 -16 9 -20 23 -5 10 12 10 14 -2 14 -8 0 -17 -4 -21
-9z"/>
<path d="M5587 8304 c-11 -11 -8 -44 3 -44 15 0 24 30 13 41 -5 5 -12 6 -16 3z"/>
<path d="M10967 8304 c-8 -8 1 -24 14 -24 5 0 9 7 9 15 0 15 -12 20 -23 9z"/>
<path d="M3308 8242 c-11 -2 -18 -13 -18 -28 0 -24 0 -24 31 -6 47 26 39 46
-13 34z"/>
<path d="M5675 8219 c-9 -14 -2 -20 14 -10 8 6 9 11 3 15 -6 3 -14 1 -17 -5z"/>
<path d="M11030 8201 c0 -12 6 -21 16 -21 9 0 14 7 12 17 -5 25 -28 28 -28 4z"/>
<path d="M3528 8164 c3 -26 7 -31 17 -21 7 7 10 16 5 21 -5 5 -6 14 -4 21 3 6
-1 12 -8 12 -9 0 -12 -11 -10 -33z"/>
<path d="M10970 8140 c9 -6 11 -10 3 -10 -7 0 -10 -7 -7 -15 4 -8 2 -15 -3
-15 -5 0 -16 -6 -24 -12 -8 -7 -12 -12 -10 -11 2 2 10 -2 17 -8 11 -9 16 -5
25 17 20 49 20 64 1 64 -14 0 -15 -2 -2 -10z"/>
<path d="M5583 8127 c0 -8 6 -14 14 -14 9 0 10 4 2 14 -6 7 -12 13 -14 13 -1
0 -2 -6 -2 -13z"/>
<path d="M5437 8123 c-12 -12 -7 -33 7 -33 8 0 13 7 12 15 -3 19 -11 27 -19
18z"/>
<path d="M3615 8102 c-3 -9 -3 -13 1 -9 4 4 12 2 19 -3 8 -7 12 -5 12 5 0 21
-24 27 -32 7z"/>
<path d="M3706 7982 c-2 -4 -1 -14 5 -22 5 -8 9 -13 10 -10 0 3 2 13 4 23 3
17 -10 24 -19 9z"/>
<path d="M10960 7950 c-19 -21 -23 -40 -10 -40 6 0 10 4 10 9 0 5 10 7 21 4
20 -5 20 -4 9 18 -7 13 -13 24 -14 25 0 0 -8 -7 -16 -16z"/>
<path d="M5483 7953 c4 -6 2 -13 -4 -15 -7 -2 -6 -8 3 -16 12 -9 14 -8 13 8
-1 11 -5 23 -10 27 -4 5 -5 3 -2 -4z"/>
<path d="M3625 7929 c-4 -6 -4 -13 -1 -16 3 -4 6 -1 6 6 0 7 5 9 12 5 7 -4 8
-3 4 4 -9 15 -13 15 -21 1z"/>
<path d="M3335 7891 c-3 -5 -1 -12 5 -16 5 -3 10 1 10 9 0 18 -6 21 -15 7z"/>
<path d="M11054 7862 c3 -6 -2 -12 -11 -14 -16 -3 -17 -4 -1 -10 19 -8 33 17
16 28 -6 4 -8 3 -4 -4z"/>
<path d="M3376 7850 c-15 -5 -16 -9 -7 -14 7 -5 18 -3 24 3 14 14 6 20 -17 11z"/>
<path d="M3530 7850 c-8 -6 -13 -10 -10 -11 44 -7 53 -8 45 -1 -5 4 -12 10
-15 14 -3 4 -12 3 -20 -2z"/>
<path d="M3706 7853 c-11 -11 -6 -23 8 -23 8 0 17 4 20 9 7 10 -19 23 -28 14z"/>
<path d="M3757 7833 c-10 -9 -9 -23 1 -23 5 0 9 7 9 15 0 17 -1 18 -10 8z"/>
<path d="M5470 7780 c-12 -8 -11 -10 8 -10 12 0 22 5 22 10 0 13 -11 13 -30 0z"/>
<path d="M3295 7759 c-4 -6 -4 -13 -1 -16 3 -3 0 -13 -7 -21 -10 -13 -9 -14 3
-7 8 6 18 10 22 10 16 0 19 15 4 21 -9 3 -13 10 -10 15 3 5 3 9 0 9 -3 0 -8
-5 -11 -11z"/>
<path d="M3464 7748 c1 -13 6 -22 9 -20 4 1 9 3 12 3 3 1 10 3 15 4 6 1 14 3
18 4 5 0 9 8 9 16 0 21 -17 19 -17 -2 -1 -17 -1 -17 -14 0 -19 24 -37 21 -32
-5z"/>
<path d="M11052 7698 c2 -30 16 -25 22 9 3 12 -1 20 -10 20 -9 0 -13 -10 -12
-29z"/>
<path d="M3740 7686 c0 -2 8 -10 18 -17 15 -13 16 -12 3 4 -13 16 -21 21 -21
13z"/>
<path d="M3590 7670 c0 -5 7 -10 16 -10 8 0 12 5 9 10 -3 6 -10 10 -16 10 -5
0 -9 -4 -9 -10z"/>
<path d="M3465 7590 c-8 -13 -1 -24 14 -19 6 3 7 10 2 18 -6 10 -10 10 -16 1z"/>
<path d="M3627 7574 c8 -21 31 -25 26 -5 -2 10 -10 18 -18 18 -7 0 -11 -6 -8
-13z"/>
<path d="M11050 7550 c0 -11 1 -20 3 -20 1 0 10 9 20 20 16 19 16 20 -3 20
-13 0 -20 -7 -20 -20z"/>
<path d="M11140 7540 c-9 -6 -10 -10 -3 -10 6 0 15 5 18 10 8 12 4 12 -15 0z"/>
<path d="M11007 7484 c-9 -9 4 -34 18 -34 8 0 11 8 8 20 -5 20 -15 25 -26 14z"/>
<path d="M11095 7391 c-3 -6 3 -9 14 -8 11 0 17 5 15 9 -7 11 -22 10 -29 -1z"/>
<path d="M5430 7300 c0 -5 5 -10 10 -10 6 0 10 5 10 10 0 6 -4 10 -10 10 -5 0
-10 -4 -10 -10z"/>
<path d="M11215 7269 c-4 -6 -5 -12 -2 -15 2 -3 7 2 10 11 7 17 1 20 -8 4z"/>
<path d="M11273 7235 c0 -8 4 -12 9 -9 4 3 8 9 8 15 0 5 -4 9 -8 9 -5 0 -9 -7
-9 -15z"/>
<path d="M5370 7213 c0 -13 5 -23 10 -23 13 0 13 11 0 30 -8 12 -10 11 -10 -7z"/>
<path d="M11055 7220 c-3 -5 -1 -10 5 -10 6 0 8 -5 4 -12 -4 -7 -3 -8 4 -4 6
4 9 13 5 21 -6 18 -10 19 -18 5z"/>
<path d="M10972 7161 c0 -3 -1 -8 -2 -11 -7 -19 -7 -40 1 -40 5 0 9 5 9 11 0
5 4 8 9 5 5 -3 12 1 15 10 8 21 8 21 -14 27 -10 3 -19 2 -18 -2z"/>
<path d="M5436 7126 c3 -8 13 -12 25 -9 23 6 15 23 -11 23 -12 0 -17 -5 -14
-14z"/>
<path d="M5525 7060 c3 -5 8 -10 11 -10 2 0 4 5 4 10 0 6 -5 10 -11 10 -5 0
-7 -4 -4 -10z"/>
<path d="M10983 6977 c0 -8 6 -14 14 -14 7 0 13 6 13 14 0 7 -6 13 -13 13 -8
0 -14 -6 -14 -13z"/>
<path d="M10976 6854 c-3 -8 -2 -13 3 -9 5 3 11 0 13 -7 3 -7 7 -8 10 -3 3 6
0 15 -7 22 -10 10 -14 9 -19 -3z"/>
<path d="M10910 6771 c0 -7 -4 -9 -10 -6 -5 3 -10 4 -10 1 0 -3 9 -10 19 -16
15 -7 19 -7 17 5 -3 19 -16 32 -16 16z"/>
<path d="M10970 6697 c0 -8 6 -14 14 -14 8 0 12 6 9 14 -3 7 -9 13 -14 13 -5
0 -9 -6 -9 -13z"/>
<path d="M10902 6605 c4 -4 3 -14 -3 -22 -9 -10 -8 -13 0 -13 7 0 9 -6 6 -12
-4 -7 3 -2 14 12 11 14 21 20 21 13 0 -14 30 -6 30 9 0 5 -10 8 -22 7 -13 -2
-30 1 -38 5 -8 5 -12 6 -8 1z"/>
<path d="M10735 6279 c-11 -16 -1 -19 13 -3 7 8 8 14 3 14 -5 0 -13 -5 -16
-11z"/>
<path d="M6055 6140 c3 -5 13 -10 21 -10 8 0 12 5 9 10 -3 6 -13 10 -21 10 -8
0 -12 -4 -9 -10z"/>
<path d="M10497 6033 c-12 -11 -8 -23 7 -23 8 0 16 7 20 15 5 15 -14 21 -27 8z"/>
<path d="M13811 5897 c-6 -6 -11 -17 -11 -24 0 -19 43 -10 46 10 3 20 -20 29
-35 14z"/>
<path d="M10343 5831 c-11 -18 -8 -31 8 -31 11 0 18 26 10 38 -4 7 -11 5 -18
-7z"/>
<path d="M13739 5848 c-1 -2 -2 -17 -3 -34 -1 -21 2 -30 10 -27 16 6 26 33 13
33 -6 0 -8 4 -4 9 3 5 1 12 -5 16 -5 3 -10 5 -11 3z"/>
<path d="M13565 5812 c0 -14 6 -27 14 -30 8 -3 11 0 7 6 -3 6 0 13 6 15 10 4
10 6 0 6 -7 1 -11 5 -8 10 3 5 0 11 -7 14 -9 3 -13 -4 -12 -21z"/>
<path d="M13450 5824 c0 -17 17 -36 24 -26 3 5 -1 15 -9 22 -8 7 -15 9 -15 4z"/>
<path d="M13273 5806 c-3 -6 -3 -8 2 -4 4 4 13 3 20 -2 8 -7 12 -5 12 3 0 16
-25 18 -34 3z"/>
<path d="M10293 5764 c-9 -25 13 -40 26 -16 8 16 7 21 -5 26 -8 3 -17 -1 -21
-10z"/>
<path d="M13366 5766 c3 -8 13 -12 27 -8 20 5 20 6 1 13 -29 11 -34 10 -28 -5z"/>
<path d="M13484 5772 c-6 -4 -13 -14 -16 -22 -3 -11 -20 -15 -61 -16 -31 0
-57 3 -57 7 0 4 -7 9 -15 13 -11 4 -14 -1 -11 -17 2 -12 -1 -27 -6 -34 -6 -8
0 -20 21 -38 l29 -27 -34 -33 c-42 -41 -43 -56 -2 -80 18 -10 27 -20 20 -23
-7 -2 -12 -8 -12 -13 0 -6 -12 -21 -27 -34 -27 -23 -27 -24 -6 -25 16 0 21 -5
18 -19 -2 -11 3 -22 12 -25 8 -4 13 -13 9 -21 -3 -9 0 -15 10 -15 21 0 12 -23
-10 -26 -24 -3 -30 -10 -22 -30 3 -9 13 -14 21 -10 23 9 26 -9 5 -32 -22 -23
-26 -42 -9 -42 5 0 8 -4 4 -9 -3 -5 2 -16 10 -25 8 -8 13 -25 11 -38 -3 -13
-5 -27 -5 -32 -1 -5 -8 -3 -16 4 -8 7 -15 9 -16 4 0 -5 -2 -18 -4 -29 -6 -27
4 -57 16 -50 15 10 10 -41 -5 -54 -8 -7 -13 -20 -11 -29 1 -9 -2 -23 -8 -29
-6 -9 -6 -13 2 -13 6 0 11 -7 11 -16 0 -8 4 -13 8 -10 5 3 8 -10 8 -29 -1 -19
-5 -35 -9 -35 -5 0 -5 -4 -2 -10 3 -5 1 -10 -5 -10 -6 0 -8 -5 -5 -10 4 -6 10
-8 15 -5 4 3 10 -2 14 -10 4 -10 -1 -15 -16 -15 -12 0 -18 -3 -15 -7 4 -3 1
-13 -6 -21 -10 -13 -9 -14 2 -7 11 6 13 4 8 -9 -4 -9 1 -29 10 -44 9 -15 13
-24 8 -20 -16 15 -32 -35 -21 -69 5 -18 13 -33 17 -33 12 0 4 -86 -8 -102 -12
-14 -3 -41 13 -38 5 1 10 -3 12 -9 2 -6 -1 -11 -6 -11 -6 0 -9 -11 -8 -24 2
-13 -9 -41 -24 -63 -22 -32 -24 -40 -11 -39 11 1 15 -6 13 -21 -2 -16 2 -23
13 -23 9 0 13 -5 10 -11 -4 -5 1 -19 10 -29 17 -19 17 -20 -7 -29 -27 -10 -30
-31 -10 -68 7 -13 9 -23 5 -23 -4 0 0 -5 11 -11 14 -9 15 -13 6 -19 -7 -4 -14
-20 -15 -34 -2 -15 -9 -34 -16 -42 -7 -8 -8 -14 -3 -13 20 4 31 -2 31 -16 0
-8 -4 -15 -9 -15 -5 0 -6 -5 -3 -11 4 -5 -3 -19 -16 -29 -21 -19 -23 -19 -35
-2 -7 9 -14 12 -14 6 0 -6 -6 -11 -12 -11 -7 -1 -30 -4 -51 -7 -23 -3 -35 -1
-32 4 6 10 -3 13 -37 13 -10 0 -18 4 -18 9 0 5 -4 6 -10 3 -5 -3 -10 -1 -10 4
0 6 -5 11 -12 11 -6 0 -8 -3 -5 -7 4 -3 -1 -12 -11 -20 -9 -8 -11 -11 -3 -7
10 5 12 3 7 -5 -6 -8 -12 -9 -20 -2 -7 6 -16 8 -19 4 -4 -3 -7 -2 -7 3 0 6
-12 10 -27 9 -16 0 -31 4 -35 10 -5 6 -8 2 -8 -8 0 -14 -4 -16 -19 -8 -15 8
-20 7 -26 -6 -4 -12 -8 -14 -13 -6 -4 6 -34 14 -67 18 -33 3 -63 12 -68 18 -5
9 -11 8 -20 -3 -16 -20 -38 -24 -47 -9 -5 8 -10 4 -15 -10 -6 -21 -8 -22 -26
-5 -10 9 -19 13 -19 9 0 -4 -9 0 -20 10 -16 14 -22 15 -34 5 -9 -6 -14 -17
-13 -23 1 -7 -7 -12 -18 -12 -11 0 -19 5 -18 12 1 6 -4 17 -12 23 -11 9 -15
10 -15 1 0 -7 -5 -9 -12 -5 -6 4 -8 3 -5 -3 4 -6 1 -16 -7 -22 -11 -9 -15 -9
-18 0 -2 7 -14 14 -27 16 -12 2 -20 -1 -17 -6 4 -5 -2 -8 -11 -6 -10 2 -26 4
-36 4 -10 1 -15 6 -12 11 3 6 0 10 -8 10 -8 0 -17 -10 -21 -22 -4 -17 -8 -20
-15 -10 -4 7 -17 15 -27 16 -10 2 -18 9 -16 17 3 10 0 10 -12 0 -9 -7 -13 -17
-10 -22 6 -10 4 -10 -46 -12 -26 -2 -35 2 -34 14 1 9 -5 16 -12 16 -7 0 -11
-4 -8 -8 2 -4 -21 -6 -51 -4 -38 2 -60 8 -68 20 -12 15 -14 15 -36 -4 -17 -15
-28 -18 -47 -11 -18 7 -26 5 -36 -9 -10 -14 -26 -17 -75 -17 -33 0 -59 4 -57
8 3 5 -2 9 -10 9 -29 3 -34 4 -41 11 -4 4 -17 3 -28 -3 -12 -7 -17 -7 -13 -1
14 22 -22 18 -39 -5 -18 -23 -20 -24 -32 -7 -15 20 -43 28 -40 11 1 -7 -5 -12
-13 -12 -8 0 -19 -4 -23 -10 -5 -6 -7 -4 -4 5 3 9 -1 29 -8 45 -9 20 -14 24
-14 13 -1 -10 -8 -18 -16 -18 -8 0 -14 -5 -13 -12 3 -13 -78 -19 -103 -7 -8 4
-22 3 -30 -2 -7 -5 -9 -9 -4 -9 6 0 3 -5 -6 -10 -12 -7 -28 -5 -53 5 -20 8
-38 16 -41 16 -27 4 -44 13 -39 20 10 17 -16 9 -33 -10 -11 -13 -25 -18 -46
-15 -16 2 -39 -2 -51 -8 -27 -15 -119 -18 -128 -5 -3 6 -21 12 -40 13 -18 1
-37 3 -41 3 -5 1 -6 5 -3 9 2 4 -6 8 -19 8 -13 0 -22 -3 -19 -7 8 -14 -8 -38
-22 -32 -8 3 -14 0 -14 -7 0 -10 -3 -10 -15 0 -11 9 -15 9 -15 1 0 -7 -5 -9
-12 -5 -8 4 -10 3 -5 -2 9 -9 13 -10 43 -13 11 -1 13 -7 8 -23 -4 -13 -11 -26
-16 -29 -6 -4 -6 -9 1 -13 6 -4 8 -13 4 -19 -14 -23 -11 -37 7 -37 21 0 39
-42 21 -48 -16 -5 -41 -32 -41 -43 0 -6 5 -7 10 -4 6 3 10 -1 10 -10 0 -9 6
-15 13 -14 24 3 34 -1 34 -15 0 -8 -7 -11 -17 -9 -14 4 -17 0 -12 -23 4 -20 2
-25 -8 -19 -10 6 -12 4 -7 -10 5 -11 1 -22 -10 -31 -12 -9 -14 -14 -5 -15 6
-1 17 -3 22 -4 6 -1 16 -3 23 -4 6 -1 3 -7 -8 -13 -35 -20 -51 -60 -35 -87 5
-9 10 -12 10 -7 0 5 8 2 17 -5 15 -12 16 -12 8 1 -7 11 -2 10 19 -3 24 -16 30
-17 44 -5 10 8 33 14 52 14 28 -1 36 -5 38 -23 5 -31 62 -34 62 -3 0 20 5 23
35 23 32 0 35 -4 31 -27 -5 -30 19 -43 33 -18 5 9 12 16 15 15 16 -8 25 -1 19
14 -4 11 -3 14 5 9 7 -4 12 -2 12 3 0 13 39 9 48 -5 4 -5 14 -9 22 -9 8 0 20
-6 27 -15 11 -13 12 -13 13 1 0 9 10 24 23 35 12 10 19 15 15 10 -9 -11 40
-59 53 -51 7 5 6 11 -2 21 -6 8 -10 14 -8 15 32 7 50 3 55 -13 3 -11 10 -15
17 -11 20 13 38 12 43 -1 4 -11 21 -13 57 -7 4 0 7 8 7 16 0 9 9 15 21 15 18
0 19 -3 9 -15 -10 -12 -9 -16 2 -20 30 -12 93 8 82 26 -2 4 5 14 16 24 23 21
46 9 45 -25 0 -21 5 -25 30 -25 21 0 31 6 35 20 7 28 45 27 44 -1 -1 -18 5
-21 52 -21 38 0 55 5 59 15 5 13 7 13 18 -1 17 -21 61 -17 65 6 2 11 12 27 22
37 17 17 18 17 28 -4 6 -11 13 -29 16 -38 6 -21 66 -20 82 1 10 13 15 13 35 0
26 -17 154 -21 177 -6 7 5 12 3 12 -5 1 -9 5 -8 14 4 11 15 15 16 41 2 16 -8
31 -11 34 -6 3 5 14 12 25 15 15 6 16 10 6 22 -11 13 -10 14 5 9 9 -4 20 -2
24 5 5 8 15 9 32 2 13 -5 19 -10 13 -10 -6 -1 -9 -12 -6 -26 3 -19 9 -24 26
-21 11 2 20 9 18 15 -3 17 9 13 24 -6 12 -17 13 -17 19 -1 6 15 10 16 28 4 32
-20 82 -16 81 7 -1 9 4 17 12 17 8 0 14 -6 14 -12 0 -8 3 -9 8 -3 13 18 31 15
27 -5 -2 -13 2 -20 11 -20 8 0 14 4 14 8 0 5 11 14 24 20 21 9 24 9 21 -7 -2
-10 3 -18 11 -18 8 0 14 4 14 9 0 4 9 8 20 8 11 0 20 -4 20 -10 0 -16 65 -6
66 10 2 33 5 34 28 5 23 -29 25 -29 38 -11 12 15 17 16 29 5 17 -17 69 -19 69
-4 0 7 10 11 23 9 12 -1 28 -3 35 -3 7 -1 11 -5 8 -9 -3 -5 1 -9 9 -9 8 0 15
7 15 15 0 13 2 13 18 -1 15 -13 19 -14 36 -1 11 8 16 14 10 14 -5 0 -3 4 5 9
15 10 41 -8 41 -28 0 -6 6 -8 14 -5 8 3 12 12 9 20 -6 17 22 19 33 3 3 -6 15
-9 25 -6 11 3 23 -1 27 -10 6 -10 17 -12 35 -8 15 4 25 11 22 15 -9 14 67 3
76 -11 7 -11 11 -12 18 -1 13 20 93 23 109 3 10 -12 15 -13 18 -3 9 20 30 14
42 -14 7 -14 17 -22 22 -19 14 9 12 25 -2 23 -9 -2 -13 10 -13 35 -1 24 4 37
12 37 20 0 15 30 -4 31 -12 0 -13 2 -5 6 9 4 10 8 2 18 -8 10 -8 15 1 21 8 5
9 3 4 -6 -5 -9 -4 -11 4 -6 8 6 9 12 2 20 -6 7 -8 16 -4 19 3 4 2 7 -3 7 -13
0 -13 93 0 102 13 9 15 52 2 60 -7 5 -6 8 4 8 11 0 12 2 3 8 -16 10 -23 80 -9
86 7 3 8 7 1 13 -13 11 -18 36 -5 28 5 -3 11 -1 11 4 1 6 2 17 3 24 1 6 -3 15
-9 19 -6 5 -6 8 2 8 7 0 10 7 7 15 -4 8 -10 12 -15 9 -5 -3 -6 2 -3 10 3 9 10
16 15 16 5 0 9 8 9 18 0 10 6 24 13 31 10 11 10 13 0 7 -8 -4 -13 -1 -13 7 0
8 -7 18 -16 21 -10 4 -13 13 -9 26 4 12 2 20 -5 20 -7 0 -8 6 -1 18 9 17 11
24 11 43 0 5 3 8 8 5 4 -2 8 9 8 25 1 16 -3 29 -10 29 -8 0 -11 19 -10 58 2
68 1 62 20 87 12 17 16 18 24 5 8 -12 10 -12 16 4 5 12 2 22 -9 27 -9 5 -13
17 -10 29 3 11 9 17 14 14 5 -3 9 2 9 10 0 24 -15 19 -30 -9 -18 -34 -35 -32
-36 5 -2 27 6 35 29 31 5 -1 6 3 2 9 -3 5 -2 10 4 10 5 0 9 27 9 60 -1 32 -5
57 -10 54 -8 -5 -10 -1 -11 39 -1 12 -5 25 -11 29 -13 9 -16 90 -3 106 11 14
37 -2 37 -23 0 -13 29 -29 37 -21 8 8 -17 46 -30 46 -7 0 -6 4 3 10 13 8 12
10 -5 11 -11 1 -24 1 -29 0 -5 -1 -17 6 -27 15 -15 13 -16 19 -7 25 7 4 12 20
13 36 0 24 4 28 27 27 15 0 30 6 32 13 4 9 -4 13 -23 13 -15 0 -30 3 -34 6 -9
10 4 34 18 34 8 0 17 5 21 12 4 7 3 8 -4 4 -7 -4 -12 -1 -12 8 0 8 -10 23 -22
33 -23 18 -38 50 -18 38 10 -6 12 -2 13 33 1 9 5 20 10 23 15 10 15 43 1 66
-12 20 -12 22 8 25 25 4 36 46 13 54 -8 4 -12 10 -9 15 3 5 0 9 -6 9 -6 0 -8
5 -5 10 3 6 1 10 -5 10 -17 0 5 33 24 36 9 1 16 -3 16 -9 0 -24 21 11 25 41 3
31 -4 37 -45 34 -3 0 -5 24 -5 54 0 44 3 54 17 54 9 0 20 5 24 12 4 7 3 8 -4
4 -7 -4 -12 -3 -12 3 0 5 5 13 11 17 7 4 2 12 -13 23 -18 12 -23 24 -21 53 0
21 -3 36 -7 33 -5 -3 -11 -1 -14 4 -5 8 16 23 37 25 4 1 7 4 7 9 0 4 0 12 0
17 0 6 -9 10 -19 10 -22 0 -37 16 -21 22 6 2 12 13 14 25 4 17 1 20 -11 16 -9
-4 -21 1 -29 12 -8 10 -14 14 -14 8 0 -6 -7 -14 -16 -17 -10 -4 -13 -2 -8 6 5
7 3 8 -7 2 -21 -13 -70 -11 -108 3 -40 16 -41 16 -41 2 0 -5 6 -7 13 -3 7 4 9
3 4 -2 -5 -5 -12 -9 -15 -9 -4 0 -13 -4 -21 -9 -18 -12 -63 -17 -56 -6 3 4
-11 11 -30 14 -31 6 -40 15 -36 39 1 9 -11 9 -25 -1z"/>
<path d="M13268 5733 c-21 -5 -24 -23 -4 -23 8 0 16 7 20 15 3 8 4 14 3 14 -1
-1 -10 -3 -19 -6z"/>
<path d="M10326 5678 c3 -5 10 -6 15 -3 13 9 11 12 -6 12 -8 0 -12 -4 -9 -9z"/>
<path d="M13960 5669 c0 -5 -4 -7 -10 -4 -5 3 -10 2 -10 -3 0 -6 7 -12 15 -16
10 -4 15 1 15 14 0 11 -2 20 -5 20 -3 0 -5 -5 -5 -11z"/>
<path d="M13950 5515 c0 -16 16 -20 24 -6 3 5 -1 11 -9 15 -9 3 -15 0 -15 -9z"/>
<path d="M14010 5411 c0 -22 26 -35 33 -17 6 14 -10 36 -25 36 -4 0 -8 -9 -8
-19z"/>
<path d="M14061 5358 c-7 -19 -5 -24 10 -26 12 -2 17 -8 13 -15 -5 -9 -4 -9 5
-1 8 8 9 18 2 37 -13 33 -19 34 -30 5z"/>
<path d="M9846 5324 c-8 -21 -8 -24 3 -24 12 0 22 28 12 35 -5 3 -12 -2 -15
-11z"/>
<path d="M9807 5283 c-4 -3 -7 -11 -7 -17 0 -6 5 -5 12 2 6 6 9 14 7 17 -3 3
-9 2 -12 -2z"/>
<path d="M13995 5270 c-3 -11 -4 -24 -1 -29 7 -11 32 -9 43 4 4 4 2 5 -4 1 -9
-5 -13 0 -13 13 0 28 -17 36 -25 11z"/>
<path d="M6910 5150 c-13 -9 -13 -11 0 -20 10 -6 16 -6 18 0 2 6 9 7 15 3 7
-4 6 1 -2 10 -7 9 -14 17 -15 17 0 0 -8 -5 -16 -10z"/>
<path d="M13907 5153 c-12 -11 -8 -23 8 -23 8 0 15 7 15 15 0 16 -12 20 -23 8z"/>
<path d="M14050 5130 c-8 -5 -12 -12 -9 -15 4 -3 12 1 19 10 14 17 11 19 -10
5z"/>
<path d="M6955 5081 c-3 -5 -1 -12 5 -16 5 -3 10 1 10 9 0 18 -6 21 -15 7z"/>
<path d="M13217 5083 c-11 -10 -8 -20 6 -20 8 0 14 6 14 14 0 14 -10 17 -20 6z"/>
<path d="M13909 5035 c-1 -8 -2 -22 -3 -32 -2 -29 19 -24 31 6 6 17 8 32 5 35
-11 12 -32 6 -33 -9z"/>
<path d="M7205 4990 c3 -5 10 -10 16 -10 5 0 9 5 9 10 0 6 -7 10 -16 10 -8 0
-12 -4 -9 -10z"/>
<path d="M14003 4983 c-17 -6 -16 -20 1 -26 10 -4 14 0 13 14 -1 10 -1 19 -2
18 0 0 -6 -3 -12 -6z"/>
<path d="M13992 4919 c1 -13 8 -23 13 -21 15 3 12 35 -3 40 -9 3 -13 -3 -10
-19z"/>
<path d="M8026 4855 c4 -8 10 -12 15 -9 14 8 10 24 -6 24 -9 0 -12 -6 -9 -15z"/>
<path d="M7446 4757 c3 -10 9 -15 12 -12 3 3 0 11 -7 18 -10 9 -11 8 -5 -6z"/>
<path d="M7296 4734 c-17 -17 -13 -34 8 -34 6 0 12 11 12 25 0 30 0 30 -20 9z"/>
<path d="M7856 4711 c-4 -7 -5 -15 -2 -18 9 -9 19 4 14 18 -4 11 -6 11 -12 0z"/>
<path d="M13250 4639 c0 -5 5 -7 10 -4 6 3 10 8 10 11 0 2 -4 4 -10 4 -5 0
-10 -5 -10 -11z"/>
<path d="M14001 4596 c-8 -9 -11 -20 -7 -23 9 -9 39 10 44 28 3 12 2 12 -6 0
-7 -10 -11 -10 -14 -1 -3 9 -8 7 -17 -4z"/>
<path d="M13977 4517 c-3 -8 1 -14 8 -14 7 0 11 6 8 14 -3 7 -6 13 -8 13 -2 0
-5 -6 -8 -13z"/>
<path d="M13990 4311 c0 -11 5 -23 10 -26 6 -3 10 -1 10 6 0 8 5 7 17 -2 14
-12 14 -10 -1 14 -21 32 -36 35 -36 8z"/>
<path d="M13173 4295 c0 -7 6 -12 14 -11 19 3 21 19 2 21 -9 2 -16 -3 -16 -10z"/>
<path d="M13103 4185 c0 -6 6 -12 14 -12 7 0 13 6 13 12 0 6 -6 12 -13 12 -8
0 -14 -6 -14 -12z"/>
<path d="M13250 4196 c0 -2 7 -9 15 -16 9 -7 15 -8 15 -2 0 5 -7 12 -15 16 -8
3 -15 4 -15 2z"/>
<path d="M13928 4183 c-17 -4 -26 -33 -10 -33 12 0 38 20 27 21 -5 0 -1 4 10
9 21 9 3 11 -27 3z"/>
<path d="M14015 4149 c-10 -15 3 -25 16 -12 7 7 7 13 1 17 -6 3 -14 1 -17 -5z"/>
<path d="M13023 4125 c0 -8 4 -12 9 -9 5 3 6 10 3 15 -9 13 -12 11 -12 -6z"/>
<path d="M11340 4040 c-8 -5 -10 -10 -5 -10 6 0 17 5 25 10 8 5 11 10 5 10 -5
0 -17 -5 -25 -10z"/>
<path d="M13929 4048 c-8 -26 -5 -38 10 -38 10 0 17 8 17 20 0 11 -6 20 -13
20 -7 0 -13 -1 -14 -2z"/>
<path d="M11270 4029 c0 -5 5 -7 10 -4 6 3 10 8 10 11 0 2 -4 4 -10 4 -5 0
-10 -5 -10 -11z"/>
<path d="M12806 4018 c5 -8 -9 -12 -32 -9 -6 1 -11 -5 -11 -13 0 -8 8 -14 18
-13 10 1 15 5 13 9 -3 4 1 8 9 8 8 0 17 6 20 13 3 8 -1 14 -9 14 -7 0 -11 -4
-8 -9z"/>
<path d="M13150 4021 c0 -5 5 -13 10 -16 6 -3 10 -2 10 4 0 5 -4 13 -10 16 -5
3 -10 2 -10 -4z"/>
<path d="M11442 3994 c-7 -12 -6 -22 3 -31 19 -19 24 -16 20 12 -3 34 -11 40
-23 19z"/>
<path d="M10946 3992 c-2 -4 -1 -14 3 -21 6 -9 11 -10 15 -2 4 6 2 11 -4 11
-6 0 -8 5 -5 10 3 6 4 10 1 10 -3 0 -7 -4 -10 -8z"/>
<path d="M11270 3973 c0 -7 4 -13 9 -13 5 0 11 6 14 13 3 8 -1 14 -9 14 -8 0
-14 -6 -14 -14z"/>
<path d="M12856 3983 c-4 -5 -12 -9 -17 -9 -5 -1 -12 -2 -16 -3 -8 -1 28 -41
37 -41 4 0 7 14 6 30 0 17 -1 30 -2 30 0 0 -4 -3 -8 -7z"/>
<path d="M13176 3982 c-2 -4 -1 -14 3 -21 6 -10 10 -9 14 3 6 16 -8 32 -17 18z"/>
<path d="M11500 3955 c0 -8 9 -15 20 -15 11 0 20 2 20 5 0 2 -9 9 -20 15 -16
9 -20 8 -20 -5z"/>
<path d="M14049 3954 c-8 -10 -9 -15 -2 -11 6 4 13 2 15 -5 3 -7 7 -8 11 -2 3
5 2 16 -2 22 -6 10 -11 9 -22 -4z"/>
<path d="M13046 3938 c3 -5 10 -6 15 -3 13 9 11 12 -6 12 -8 0 -12 -4 -9 -9z"/>
<path d="M11687 3929 c7 -7 15 -10 18 -7 3 3 -2 9 -12 12 -14 6 -15 5 -6 -5z"/>
<path d="M11856 3914 c-8 -20 0 -32 14 -18 5 5 5 15 1 22 -6 11 -10 10 -15 -4z"/>
<path d="M14005 3826 c-17 -12 -17 -13 2 -18 28 -7 44 4 28 19 -10 9 -17 9
-30 -1z"/>
<path d="M14023 3773 c-16 -6 -17 -36 -1 -31 6 2 12 12 14 21 1 9 2 17 1 16
-1 0 -8 -3 -14 -6z"/>
<path d="M14080 3740 c0 -5 5 -10 11 -10 5 0 8 -4 5 -9 -3 -5 1 -11 9 -15 16
-6 19 3 9 28 -7 17 -34 22 -34 6z"/>
<path d="M13980 3715 c-7 -9 -8 -15 -2 -15 5 0 12 7 16 15 3 8 4 15 2 15 -2 0
-9 -7 -16 -15z"/>
<path d="M13935 3700 c-3 -5 -1 -10 4 -10 6 0 11 5 11 10 0 6 -2 10 -4 10 -3
0 -8 -4 -11 -10z"/>
<path d="M13930 3521 c0 -6 5 -13 10 -16 6 -3 10 1 10 9 0 9 -4 16 -10 16 -5
0 -10 -4 -10 -9z"/>
<path d="M13896 3481 c-3 -5 2 -15 12 -22 15 -12 16 -12 5 2 -7 9 -10 19 -6
22 3 4 4 7 0 7 -3 0 -8 -4 -11 -9z"/>
<path d="M13935 3409 c-9 -14 -2 -20 14 -10 8 6 9 11 3 15 -6 3 -14 1 -17 -5z"/>
<path d="M10715 3391 c-3 -5 -2 -12 3 -15 5 -3 9 1 9 9 0 17 -3 19 -12 6z"/>
<path d="M14027 3326 c-4 -10 -1 -13 9 -9 7 3 14 9 14 14 0 14 -17 10 -23 -5z"/>
<path d="M10620 3303 c0 -7 6 -13 13 -13 8 0 14 6 14 13 0 8 -6 14 -14 14 -7
0 -13 -6 -13 -14z"/>
<path d="M14014 3279 c-3 -6 1 -18 10 -27 11 -11 16 -12 16 -4 0 7 5 10 10 7
6 -3 10 -1 10 4 0 6 -5 11 -11 11 -5 0 -7 5 -4 10 3 6 -1 10 -9 10 -8 0 -18
-5 -22 -11z"/>
<path d="M11403 3263 c0 -15 16 -17 35 -4 10 6 7 10 -10 13 -16 3 -25 0 -25
-9z"/>
<path d="M12200 3265 c-10 -12 -10 -15 3 -15 19 0 31 16 18 24 -5 3 -14 -1
-21 -9z"/>
<path d="M13019 3267 c-7 -18 -3 -44 7 -44 18 0 25 35 8 41 -8 3 -14 4 -15 3z"/>
<path d="M10860 3239 c0 -5 5 -7 10 -4 6 3 10 8 10 11 0 2 -4 4 -10 4 -5 0
-10 -5 -10 -11z"/>
<path d="M13777 3236 c-4 -10 -1 -13 8 -9 8 3 12 9 9 14 -7 12 -11 11 -17 -5z"/>
<path d="M11270 3219 c0 -11 27 -12 34 -1 2 4 -4 9 -15 9 -10 1 -19 -2 -19 -8z"/>
<path d="M12936 3221 c-4 -5 -2 -12 3 -15 5 -4 12 -2 15 3 4 5 2 12 -3 15 -5
4 -12 2 -15 -3z"/>
<path d="M13825 3221 c-3 -5 0 -13 6 -17 7 -4 9 -3 5 4 -3 5 0 13 6 15 9 4 10
6 1 6 -6 1 -14 -3 -18 -8z"/>
<path d="M13956 3213 c-6 -14 -5 -15 5 -6 7 7 10 15 7 18 -3 3 -9 -2 -12 -12z"/>
<path d="M12330 3198 c0 -20 8 -22 29 -9 9 6 10 11 2 15 -6 4 -11 1 -11 -6 0
-9 -3 -9 -10 2 -8 13 -10 12 -10 -2z"/>
<path d="M13621 3203 c-1 -17 16 -25 25 -12 4 7 3 9 -4 5 -5 -3 -13 0 -15 6
-4 9 -6 10 -6 1z"/>
<path d="M13021 3168 c-1 -28 12 -37 24 -18 3 6 2 10 -4 10 -5 0 -12 8 -14 18
-3 10 -5 6 -6 -10z"/>
<path d="M12930 3176 c0 -2 7 -7 16 -10 8 -3 12 -2 9 4 -6 10 -25 14 -25 6z"/>
<path d="M12196 3141 c-3 -5 1 -12 10 -15 22 -8 25 -4 9 11 -8 7 -16 9 -19 4z"/>
<path d="M12530 3135 c0 -8 4 -15 10 -15 5 0 7 7 4 15 -4 8 -8 15 -10 15 -2 0
-4 -7 -4 -15z"/>
</g>
</svg>
