<svg version="1.0" xmlns="http://www.w3.org/2000/svg" viewBox="0 0 113.429 113.644"><path d="M72.96 154.603c-1.77-.38-3.894-1.47-5.006-2.567-1.205-1.188-1.999-2.598-2.567-4.562l-.458-1.584V98.397c0-44.396.022-47.58.343-48.829.85-3.304 2.655-5.668 5.308-6.953 2.937-1.421-.602-1.33 51.136-1.33 51.535 0 48.34-.08 51.104 1.281 2.628 1.293 4.4 3.688 5.176 6.998.344 1.464.361 3.805.361 48.932 0 44.341-.022 47.48-.344 48.733-1.031 4.011-3.653 6.549-7.638 7.393-1.982.42-95.463.402-97.415-.019zm92.408-58.586V63.1H78.116v65.836h87.252V96.017zm-72.22 22.061c2.513-2.59 7.469-7.654 11.013-11.253l6.443-6.544 2.644 2.68c2.78 2.819 3.762 3.491 5.942 4.071 1.398.372 3.96.365 5.42-.016 1.958-.51 3.046-1.25 5.857-3.988l2.677-2.606 8.726 8.923c4.799 4.908 9.692 9.94 10.873 11.183l2.148 2.26H88.578l4.57-4.71zm-8.864-22.06v-22.31l10.983 11.093 10.982 11.093-5.915 6.06c-3.253 3.333-8.196 8.38-10.983 11.216l-5.068 5.156V96.017zm71.457 18.788c-1.832-1.881-6.72-6.88-10.86-11.109l-7.53-7.688 10.933-10.952 10.932-10.952.002 22.06c.002 12.134-.03 22.062-.07 22.062-.041 0-1.574-1.54-3.407-3.42zm-35.76-14.007c-.368-.196-7.564-7.353-15.99-15.905l-15.32-15.548 16.635-.051c9.149-.028 24.137-.028 33.307 0l16.673.05-15.53 15.647c-9.465 9.535-15.782 15.75-16.172 15.914-.912.381-2.791.326-3.603-.107z" transform="translate(-64.929 -41.285)" fill="#ffffff" class="fill-000000"></path></svg>